<?xml version="1.0" encoding="utf-8" standalone="no"?>
<!DOCTYPE svg PUBLIC "-//W3C//DTD SVG 1.1//EN"
  "http://www.w3.org/Graphics/SVG/1.1/DTD/svg11.dtd">
<svg xmlns:xlink="http://www.w3.org/1999/xlink" width="460.8pt" height="345.6pt" viewBox="0 0 460.8 345.6" xmlns="http://www.w3.org/2000/svg" version="1.1">
 <metadata>
  <rdf:RDF xmlns:dc="http://purl.org/dc/elements/1.1/" xmlns:cc="http://creativecommons.org/ns#" xmlns:rdf="http://www.w3.org/1999/02/22-rdf-syntax-ns#">
   <cc:Work>
    <dc:type rdf:resource="http://purl.org/dc/dcmitype/StillImage"/>
    <dc:date>2023-11-04T12:46:26.000103</dc:date>
    <dc:format>image/svg+xml</dc:format>
    <dc:creator>
     <cc:Agent>
      <dc:title>Matplotlib v3.8.0, https://matplotlib.org/</dc:title>
     </cc:Agent>
    </dc:creator>
   </cc:Work>
  </rdf:RDF>
 </metadata>
 <defs>
  <style type="text/css">*{stroke-linejoin: round; stroke-linecap: butt}</style>
 </defs>
 <g id="figure_1">
  <g id="patch_1">
   <path d="M 0 345.6 
L 460.8 345.6 
L 460.8 0 
L 0 0 
z
" style="fill: #ffffff"/>
  </g>
  <g id="axes_1">
   <g id="patch_2">
    <path d="M 57.6 307.584 
L 414.72 307.584 
L 414.72 41.472 
L 57.6 41.472 
z
" style="fill: #ffffff"/>
   </g>
   <g id="matplotlib.axis_1">
    <g id="xtick_1">
     <g id="line2d_1">
      <defs>
       <path id="m5c738af158" d="M 0 0 
L 0 3.5 
" style="stroke: #000000; stroke-width: 0.8"/>
      </defs>
      <g>
       <use xlink:href="#m5c738af158" x="73.832727" y="307.584" style="stroke: #000000; stroke-width: 0.8"/>
      </g>
     </g>
    </g>
    <g id="xtick_2">
     <g id="line2d_2">
      <g>
       <use xlink:href="#m5c738af158" x="138.828632" y="307.584" style="stroke: #000000; stroke-width: 0.8"/>
      </g>
     </g>
     <g id="text_1">
      <!-- 200 -->
      <g transform="translate(129.284882 322.182437) scale(0.1 -0.1)">
       <defs>
        <path id="DejaVuSans-32" d="M 1228 531 
L 3431 531 
L 3431 0 
L 469 0 
L 469 531 
Q 828 903 1448 1529 
Q 2069 2156 2228 2338 
Q 2531 2678 2651 2914 
Q 2772 3150 2772 3378 
Q 2772 3750 2511 3984 
Q 2250 4219 1831 4219 
Q 1534 4219 1204 4116 
Q 875 4013 500 3803 
L 500 4441 
Q 881 4594 1212 4672 
Q 1544 4750 1819 4750 
Q 2544 4750 2975 4387 
Q 3406 4025 3406 3419 
Q 3406 3131 3298 2873 
Q 3191 2616 2906 2266 
Q 2828 2175 2409 1742 
Q 1991 1309 1228 531 
z
" transform="scale(0.015625)"/>
        <path id="DejaVuSans-30" d="M 2034 4250 
Q 1547 4250 1301 3770 
Q 1056 3291 1056 2328 
Q 1056 1369 1301 889 
Q 1547 409 2034 409 
Q 2525 409 2770 889 
Q 3016 1369 3016 2328 
Q 3016 3291 2770 3770 
Q 2525 4250 2034 4250 
z
M 2034 4750 
Q 2819 4750 3233 4129 
Q 3647 3509 3647 2328 
Q 3647 1150 3233 529 
Q 2819 -91 2034 -91 
Q 1250 -91 836 529 
Q 422 1150 422 2328 
Q 422 3509 836 4129 
Q 1250 4750 2034 4750 
z
" transform="scale(0.015625)"/>
       </defs>
       <use xlink:href="#DejaVuSans-32"/>
       <use xlink:href="#DejaVuSans-30" x="63.623047"/>
       <use xlink:href="#DejaVuSans-30" x="127.246094"/>
      </g>
     </g>
    </g>
    <g id="xtick_3">
     <g id="line2d_3">
      <g>
       <use xlink:href="#m5c738af158" x="203.824537" y="307.584" style="stroke: #000000; stroke-width: 0.8"/>
      </g>
     </g>
     <g id="text_2">
      <!-- 400 -->
      <g transform="translate(194.280787 322.182437) scale(0.1 -0.1)">
       <defs>
        <path id="DejaVuSans-34" d="M 2419 4116 
L 825 1625 
L 2419 1625 
L 2419 4116 
z
M 2253 4666 
L 3047 4666 
L 3047 1625 
L 3713 1625 
L 3713 1100 
L 3047 1100 
L 3047 0 
L 2419 0 
L 2419 1100 
L 313 1100 
L 313 1709 
L 2253 4666 
z
" transform="scale(0.015625)"/>
       </defs>
       <use xlink:href="#DejaVuSans-34"/>
       <use xlink:href="#DejaVuSans-30" x="63.623047"/>
       <use xlink:href="#DejaVuSans-30" x="127.246094"/>
      </g>
     </g>
    </g>
    <g id="xtick_4">
     <g id="line2d_4">
      <g>
       <use xlink:href="#m5c738af158" x="268.820442" y="307.584" style="stroke: #000000; stroke-width: 0.8"/>
      </g>
     </g>
     <g id="text_3">
      <!-- 600 -->
      <g transform="translate(259.276692 322.182437) scale(0.1 -0.1)">
       <defs>
        <path id="DejaVuSans-36" d="M 2113 2584 
Q 1688 2584 1439 2293 
Q 1191 2003 1191 1497 
Q 1191 994 1439 701 
Q 1688 409 2113 409 
Q 2538 409 2786 701 
Q 3034 994 3034 1497 
Q 3034 2003 2786 2293 
Q 2538 2584 2113 2584 
z
M 3366 4563 
L 3366 3988 
Q 3128 4100 2886 4159 
Q 2644 4219 2406 4219 
Q 1781 4219 1451 3797 
Q 1122 3375 1075 2522 
Q 1259 2794 1537 2939 
Q 1816 3084 2150 3084 
Q 2853 3084 3261 2657 
Q 3669 2231 3669 1497 
Q 3669 778 3244 343 
Q 2819 -91 2113 -91 
Q 1303 -91 875 529 
Q 447 1150 447 2328 
Q 447 3434 972 4092 
Q 1497 4750 2381 4750 
Q 2619 4750 2861 4703 
Q 3103 4656 3366 4563 
z
" transform="scale(0.015625)"/>
       </defs>
       <use xlink:href="#DejaVuSans-36"/>
       <use xlink:href="#DejaVuSans-30" x="63.623047"/>
       <use xlink:href="#DejaVuSans-30" x="127.246094"/>
      </g>
     </g>
    </g>
    <g id="xtick_5">
     <g id="line2d_5">
      <g>
       <use xlink:href="#m5c738af158" x="333.816347" y="307.584" style="stroke: #000000; stroke-width: 0.8"/>
      </g>
     </g>
     <g id="text_4">
      <!-- 800 -->
      <g transform="translate(324.272597 322.182437) scale(0.1 -0.1)">
       <defs>
        <path id="DejaVuSans-38" d="M 2034 2216 
Q 1584 2216 1326 1975 
Q 1069 1734 1069 1313 
Q 1069 891 1326 650 
Q 1584 409 2034 409 
Q 2484 409 2743 651 
Q 3003 894 3003 1313 
Q 3003 1734 2745 1975 
Q 2488 2216 2034 2216 
z
M 1403 2484 
Q 997 2584 770 2862 
Q 544 3141 544 3541 
Q 544 4100 942 4425 
Q 1341 4750 2034 4750 
Q 2731 4750 3128 4425 
Q 3525 4100 3525 3541 
Q 3525 3141 3298 2862 
Q 3072 2584 2669 2484 
Q 3125 2378 3379 2068 
Q 3634 1759 3634 1313 
Q 3634 634 3220 271 
Q 2806 -91 2034 -91 
Q 1263 -91 848 271 
Q 434 634 434 1313 
Q 434 1759 690 2068 
Q 947 2378 1403 2484 
z
M 1172 3481 
Q 1172 3119 1398 2916 
Q 1625 2713 2034 2713 
Q 2441 2713 2670 2916 
Q 2900 3119 2900 3481 
Q 2900 3844 2670 4047 
Q 2441 4250 2034 4250 
Q 1625 4250 1398 4047 
Q 1172 3844 1172 3481 
z
" transform="scale(0.015625)"/>
       </defs>
       <use xlink:href="#DejaVuSans-38"/>
       <use xlink:href="#DejaVuSans-30" x="63.623047"/>
       <use xlink:href="#DejaVuSans-30" x="127.246094"/>
      </g>
     </g>
    </g>
    <g id="xtick_6">
     <g id="line2d_6">
      <g>
       <use xlink:href="#m5c738af158" x="398.812252" y="307.584" style="stroke: #000000; stroke-width: 0.8"/>
      </g>
     </g>
     <g id="text_5">
      <!-- 1000 -->
      <g transform="translate(386.087252 322.182437) scale(0.1 -0.1)">
       <defs>
        <path id="DejaVuSans-31" d="M 794 531 
L 1825 531 
L 1825 4091 
L 703 3866 
L 703 4441 
L 1819 4666 
L 2450 4666 
L 2450 531 
L 3481 531 
L 3481 0 
L 794 0 
L 794 531 
z
" transform="scale(0.015625)"/>
       </defs>
       <use xlink:href="#DejaVuSans-31"/>
       <use xlink:href="#DejaVuSans-30" x="63.623047"/>
       <use xlink:href="#DejaVuSans-30" x="127.246094"/>
       <use xlink:href="#DejaVuSans-30" x="190.869141"/>
      </g>
     </g>
    </g>
    <g id="xtick_7">
     <g id="line2d_7">
      <g>
       <use xlink:href="#m5c738af158" x="81.307256" y="307.584" style="stroke: #000000; stroke-width: 0.8"/>
      </g>
     </g>
     <g id="text_6">
      <!-- 23 -->
      <g transform="translate(74.944756 322.182437) scale(0.1 -0.1)">
       <defs>
        <path id="DejaVuSans-33" d="M 2597 2516 
Q 3050 2419 3304 2112 
Q 3559 1806 3559 1356 
Q 3559 666 3084 287 
Q 2609 -91 1734 -91 
Q 1441 -91 1130 -33 
Q 819 25 488 141 
L 488 750 
Q 750 597 1062 519 
Q 1375 441 1716 441 
Q 2309 441 2620 675 
Q 2931 909 2931 1356 
Q 2931 1769 2642 2001 
Q 2353 2234 1838 2234 
L 1294 2234 
L 1294 2753 
L 1863 2753 
Q 2328 2753 2575 2939 
Q 2822 3125 2822 3475 
Q 2822 3834 2567 4026 
Q 2313 4219 1838 4219 
Q 1578 4219 1281 4162 
Q 984 4106 628 3988 
L 628 4550 
Q 988 4650 1302 4700 
Q 1616 4750 1894 4750 
Q 2613 4750 3031 4423 
Q 3450 4097 3450 3541 
Q 3450 3153 3228 2886 
Q 3006 2619 2597 2516 
z
" transform="scale(0.015625)"/>
       </defs>
       <use xlink:href="#DejaVuSans-32"/>
       <use xlink:href="#DejaVuSans-33" x="63.623047"/>
      </g>
     </g>
    </g>
    <g id="text_7">
     <!-- episode -->
     <g transform="translate(216.605312 335.860562) scale(0.1 -0.1)">
      <defs>
       <path id="DejaVuSans-65" d="M 3597 1894 
L 3597 1613 
L 953 1613 
Q 991 1019 1311 708 
Q 1631 397 2203 397 
Q 2534 397 2845 478 
Q 3156 559 3463 722 
L 3463 178 
Q 3153 47 2828 -22 
Q 2503 -91 2169 -91 
Q 1331 -91 842 396 
Q 353 884 353 1716 
Q 353 2575 817 3079 
Q 1281 3584 2069 3584 
Q 2775 3584 3186 3129 
Q 3597 2675 3597 1894 
z
M 3022 2063 
Q 3016 2534 2758 2815 
Q 2500 3097 2075 3097 
Q 1594 3097 1305 2825 
Q 1016 2553 972 2059 
L 3022 2063 
z
" transform="scale(0.015625)"/>
       <path id="DejaVuSans-70" d="M 1159 525 
L 1159 -1331 
L 581 -1331 
L 581 3500 
L 1159 3500 
L 1159 2969 
Q 1341 3281 1617 3432 
Q 1894 3584 2278 3584 
Q 2916 3584 3314 3078 
Q 3713 2572 3713 1747 
Q 3713 922 3314 415 
Q 2916 -91 2278 -91 
Q 1894 -91 1617 61 
Q 1341 213 1159 525 
z
M 3116 1747 
Q 3116 2381 2855 2742 
Q 2594 3103 2138 3103 
Q 1681 3103 1420 2742 
Q 1159 2381 1159 1747 
Q 1159 1113 1420 752 
Q 1681 391 2138 391 
Q 2594 391 2855 752 
Q 3116 1113 3116 1747 
z
" transform="scale(0.015625)"/>
       <path id="DejaVuSans-69" d="M 603 3500 
L 1178 3500 
L 1178 0 
L 603 0 
L 603 3500 
z
M 603 4863 
L 1178 4863 
L 1178 4134 
L 603 4134 
L 603 4863 
z
" transform="scale(0.015625)"/>
       <path id="DejaVuSans-73" d="M 2834 3397 
L 2834 2853 
Q 2591 2978 2328 3040 
Q 2066 3103 1784 3103 
Q 1356 3103 1142 2972 
Q 928 2841 928 2578 
Q 928 2378 1081 2264 
Q 1234 2150 1697 2047 
L 1894 2003 
Q 2506 1872 2764 1633 
Q 3022 1394 3022 966 
Q 3022 478 2636 193 
Q 2250 -91 1575 -91 
Q 1294 -91 989 -36 
Q 684 19 347 128 
L 347 722 
Q 666 556 975 473 
Q 1284 391 1588 391 
Q 1994 391 2212 530 
Q 2431 669 2431 922 
Q 2431 1156 2273 1281 
Q 2116 1406 1581 1522 
L 1381 1569 
Q 847 1681 609 1914 
Q 372 2147 372 2553 
Q 372 3047 722 3315 
Q 1072 3584 1716 3584 
Q 2034 3584 2315 3537 
Q 2597 3491 2834 3397 
z
" transform="scale(0.015625)"/>
       <path id="DejaVuSans-6f" d="M 1959 3097 
Q 1497 3097 1228 2736 
Q 959 2375 959 1747 
Q 959 1119 1226 758 
Q 1494 397 1959 397 
Q 2419 397 2687 759 
Q 2956 1122 2956 1747 
Q 2956 2369 2687 2733 
Q 2419 3097 1959 3097 
z
M 1959 3584 
Q 2709 3584 3137 3096 
Q 3566 2609 3566 1747 
Q 3566 888 3137 398 
Q 2709 -91 1959 -91 
Q 1206 -91 779 398 
Q 353 888 353 1747 
Q 353 2609 779 3096 
Q 1206 3584 1959 3584 
z
" transform="scale(0.015625)"/>
       <path id="DejaVuSans-64" d="M 2906 2969 
L 2906 4863 
L 3481 4863 
L 3481 0 
L 2906 0 
L 2906 525 
Q 2725 213 2448 61 
Q 2172 -91 1784 -91 
Q 1150 -91 751 415 
Q 353 922 353 1747 
Q 353 2572 751 3078 
Q 1150 3584 1784 3584 
Q 2172 3584 2448 3432 
Q 2725 3281 2906 2969 
z
M 947 1747 
Q 947 1113 1208 752 
Q 1469 391 1925 391 
Q 2381 391 2643 752 
Q 2906 1113 2906 1747 
Q 2906 2381 2643 2742 
Q 2381 3103 1925 3103 
Q 1469 3103 1208 2742 
Q 947 2381 947 1747 
z
" transform="scale(0.015625)"/>
      </defs>
      <use xlink:href="#DejaVuSans-65"/>
      <use xlink:href="#DejaVuSans-70" x="61.523438"/>
      <use xlink:href="#DejaVuSans-69" x="125"/>
      <use xlink:href="#DejaVuSans-73" x="152.783203"/>
      <use xlink:href="#DejaVuSans-6f" x="204.882812"/>
      <use xlink:href="#DejaVuSans-64" x="266.064453"/>
      <use xlink:href="#DejaVuSans-65" x="329.541016"/>
     </g>
    </g>
   </g>
   <g id="matplotlib.axis_2">
    <g id="ytick_1">
     <g id="line2d_8">
      <defs>
       <path id="m52051c2b34" d="M 0 0 
L -3.5 0 
" style="stroke: #000000; stroke-width: 0.8"/>
      </defs>
      <g>
       <use xlink:href="#m52051c2b34" x="57.6" y="275.048776" style="stroke: #000000; stroke-width: 0.8"/>
      </g>
     </g>
     <g id="text_8">
      <!-- −2000 -->
      <g transform="translate(16.770313 278.847994) scale(0.1 -0.1)">
       <defs>
        <path id="DejaVuSans-2212" d="M 678 2272 
L 4684 2272 
L 4684 1741 
L 678 1741 
L 678 2272 
z
" transform="scale(0.015625)"/>
       </defs>
       <use xlink:href="#DejaVuSans-2212"/>
       <use xlink:href="#DejaVuSans-32" x="83.789062"/>
       <use xlink:href="#DejaVuSans-30" x="147.412109"/>
       <use xlink:href="#DejaVuSans-30" x="211.035156"/>
       <use xlink:href="#DejaVuSans-30" x="274.658203"/>
      </g>
     </g>
    </g>
    <g id="ytick_2">
     <g id="line2d_9">
      <g>
       <use xlink:href="#m52051c2b34" x="57.6" y="219.2039" style="stroke: #000000; stroke-width: 0.8"/>
      </g>
     </g>
     <g id="text_9">
      <!-- −1500 -->
      <g transform="translate(16.770313 223.003119) scale(0.1 -0.1)">
       <defs>
        <path id="DejaVuSans-35" d="M 691 4666 
L 3169 4666 
L 3169 4134 
L 1269 4134 
L 1269 2991 
Q 1406 3038 1543 3061 
Q 1681 3084 1819 3084 
Q 2600 3084 3056 2656 
Q 3513 2228 3513 1497 
Q 3513 744 3044 326 
Q 2575 -91 1722 -91 
Q 1428 -91 1123 -41 
Q 819 9 494 109 
L 494 744 
Q 775 591 1075 516 
Q 1375 441 1709 441 
Q 2250 441 2565 725 
Q 2881 1009 2881 1497 
Q 2881 1984 2565 2268 
Q 2250 2553 1709 2553 
Q 1456 2553 1204 2497 
Q 953 2441 691 2322 
L 691 4666 
z
" transform="scale(0.015625)"/>
       </defs>
       <use xlink:href="#DejaVuSans-2212"/>
       <use xlink:href="#DejaVuSans-31" x="83.789062"/>
       <use xlink:href="#DejaVuSans-35" x="147.412109"/>
       <use xlink:href="#DejaVuSans-30" x="211.035156"/>
       <use xlink:href="#DejaVuSans-30" x="274.658203"/>
      </g>
     </g>
    </g>
    <g id="ytick_3">
     <g id="line2d_10">
      <g>
       <use xlink:href="#m52051c2b34" x="57.6" y="163.359025" style="stroke: #000000; stroke-width: 0.8"/>
      </g>
     </g>
     <g id="text_10">
      <!-- −1000 -->
      <g transform="translate(16.770313 167.158244) scale(0.1 -0.1)">
       <use xlink:href="#DejaVuSans-2212"/>
       <use xlink:href="#DejaVuSans-31" x="83.789062"/>
       <use xlink:href="#DejaVuSans-30" x="147.412109"/>
       <use xlink:href="#DejaVuSans-30" x="211.035156"/>
       <use xlink:href="#DejaVuSans-30" x="274.658203"/>
      </g>
     </g>
    </g>
    <g id="ytick_4">
     <g id="line2d_11">
      <g>
       <use xlink:href="#m52051c2b34" x="57.6" y="107.51415" style="stroke: #000000; stroke-width: 0.8"/>
      </g>
     </g>
     <g id="text_11">
      <!-- −500 -->
      <g transform="translate(23.132812 111.313368) scale(0.1 -0.1)">
       <use xlink:href="#DejaVuSans-2212"/>
       <use xlink:href="#DejaVuSans-35" x="83.789062"/>
       <use xlink:href="#DejaVuSans-30" x="147.412109"/>
       <use xlink:href="#DejaVuSans-30" x="211.035156"/>
      </g>
     </g>
    </g>
    <g id="ytick_5">
     <g id="line2d_12">
      <g>
       <use xlink:href="#m52051c2b34" x="57.6" y="51.669274" style="stroke: #000000; stroke-width: 0.8"/>
      </g>
     </g>
     <g id="text_12">
      <!-- 0 -->
      <g transform="translate(44.2375 55.468493) scale(0.1 -0.1)">
       <use xlink:href="#DejaVuSans-30"/>
      </g>
     </g>
    </g>
    <g id="text_13">
     <!-- episode reward -->
     <g transform="translate(10.690625 212.986594) rotate(-90) scale(0.1 -0.1)">
      <defs>
       <path id="DejaVuSans-20" transform="scale(0.015625)"/>
       <path id="DejaVuSans-72" d="M 2631 2963 
Q 2534 3019 2420 3045 
Q 2306 3072 2169 3072 
Q 1681 3072 1420 2755 
Q 1159 2438 1159 1844 
L 1159 0 
L 581 0 
L 581 3500 
L 1159 3500 
L 1159 2956 
Q 1341 3275 1631 3429 
Q 1922 3584 2338 3584 
Q 2397 3584 2469 3576 
Q 2541 3569 2628 3553 
L 2631 2963 
z
" transform="scale(0.015625)"/>
       <path id="DejaVuSans-77" d="M 269 3500 
L 844 3500 
L 1563 769 
L 2278 3500 
L 2956 3500 
L 3675 769 
L 4391 3500 
L 4966 3500 
L 4050 0 
L 3372 0 
L 2619 2869 
L 1863 0 
L 1184 0 
L 269 3500 
z
" transform="scale(0.015625)"/>
       <path id="DejaVuSans-61" d="M 2194 1759 
Q 1497 1759 1228 1600 
Q 959 1441 959 1056 
Q 959 750 1161 570 
Q 1363 391 1709 391 
Q 2188 391 2477 730 
Q 2766 1069 2766 1631 
L 2766 1759 
L 2194 1759 
z
M 3341 1997 
L 3341 0 
L 2766 0 
L 2766 531 
Q 2569 213 2275 61 
Q 1981 -91 1556 -91 
Q 1019 -91 701 211 
Q 384 513 384 1019 
Q 384 1609 779 1909 
Q 1175 2209 1959 2209 
L 2766 2209 
L 2766 2266 
Q 2766 2663 2505 2880 
Q 2244 3097 1772 3097 
Q 1472 3097 1187 3025 
Q 903 2953 641 2809 
L 641 3341 
Q 956 3463 1253 3523 
Q 1550 3584 1831 3584 
Q 2591 3584 2966 3190 
Q 3341 2797 3341 1997 
z
" transform="scale(0.015625)"/>
      </defs>
      <use xlink:href="#DejaVuSans-65"/>
      <use xlink:href="#DejaVuSans-70" x="61.523438"/>
      <use xlink:href="#DejaVuSans-69" x="125"/>
      <use xlink:href="#DejaVuSans-73" x="152.783203"/>
      <use xlink:href="#DejaVuSans-6f" x="204.882812"/>
      <use xlink:href="#DejaVuSans-64" x="266.064453"/>
      <use xlink:href="#DejaVuSans-65" x="329.541016"/>
      <use xlink:href="#DejaVuSans-20" x="391.064453"/>
      <use xlink:href="#DejaVuSans-72" x="422.851562"/>
      <use xlink:href="#DejaVuSans-65" x="461.714844"/>
      <use xlink:href="#DejaVuSans-77" x="523.238281"/>
      <use xlink:href="#DejaVuSans-61" x="605.025391"/>
      <use xlink:href="#DejaVuSans-72" x="666.304688"/>
      <use xlink:href="#DejaVuSans-64" x="705.667969"/>
     </g>
    </g>
   </g>
   <g id="line2d_13">
    <path d="M 73.832727 67.864288 
L 74.157707 295.488 
L 74.482686 61.609662 
L 74.807666 76.576089 
L 75.132645 55.913485 
L 75.457625 57.588831 
L 75.782604 62.61487 
L 76.107584 88.303512 
L 76.432563 60.381075 
L 76.757543 57.812211 
L 77.082523 59.710936 
L 77.407502 53.79138 
L 77.732482 71.773429 
L 78.057461 58.03559 
L 78.382441 58.14728 
L 78.70742 54.796587 
L 79.0324 74.007224 
L 79.357379 56.583623 
L 79.682359 69.874704 
L 80.007338 53.79138 
L 80.332318 56.695313 
L 80.657297 54.684898 
L 80.982277 60.381075 
L 81.307256 53.568 
L 81.632236 54.126449 
L 81.957215 67.305839 
L 82.282195 55.578416 
L 82.607174 54.349828 
L 82.932154 54.573208 
L 83.257133 54.014759 
L 83.582113 55.355036 
L 83.907093 54.461518 
L 84.232072 56.471934 
L 84.882031 54.796587 
L 85.207011 54.461518 
L 85.53199 80.820299 
L 85.85697 55.578416 
L 86.181949 54.014759 
L 86.506929 55.019967 
L 86.831908 55.019967 
L 87.156888 55.131657 
L 87.481867 56.136864 
L 87.806847 53.67969 
L 88.131826 55.019967 
L 88.456806 55.131657 
L 88.781785 54.126449 
L 89.106765 65.295424 
L 89.431744 55.801795 
L 89.756724 54.349828 
L 90.081704 54.573208 
L 90.406683 62.838249 
L 90.731663 66.412321 
L 91.056642 54.126449 
L 91.381622 56.583623 
L 91.706601 54.573208 
L 92.031581 55.690105 
L 92.35656 55.690105 
L 92.68154 53.79138 
L 93.006519 54.126449 
L 93.331499 53.568 
L 93.656478 53.568 
L 93.981458 53.903069 
L 94.306437 53.67969 
L 94.631417 53.67969 
L 95.281376 53.903069 
L 95.606355 54.573208 
L 95.931335 54.349828 
L 96.256314 54.461518 
L 96.581294 53.79138 
L 96.906274 54.461518 
L 97.231253 54.126449 
L 97.556233 54.684898 
L 97.881212 53.79138 
L 98.206192 53.67969 
L 98.531171 54.238139 
L 98.856151 54.014759 
L 99.18113 54.796587 
L 99.50611 53.568 
L 99.831089 54.796587 
L 100.156069 53.568 
L 100.481048 53.67969 
L 100.806028 54.014759 
L 101.131007 53.568 
L 101.780966 53.568 
L 102.105946 54.014759 
L 102.430925 53.67969 
L 102.755905 53.67969 
L 103.080885 53.568 
L 103.405864 53.67969 
L 103.730844 54.349828 
L 104.055823 54.014759 
L 104.380803 54.461518 
L 104.705782 53.903069 
L 105.030762 53.67969 
L 105.680721 54.908277 
L 106.0057 54.461518 
L 106.33068 53.79138 
L 106.655659 54.908277 
L 106.980639 53.568 
L 107.305618 107.51415 
L 107.630598 107.51415 
L 107.955577 57.142072 
L 108.280557 70.098083 
L 108.605536 54.461518 
L 108.930516 54.796587 
L 109.255495 54.349828 
L 109.580475 54.126449 
L 109.905455 53.568 
L 110.555414 53.568 
L 110.880393 54.238139 
L 111.205373 53.568 
L 111.530352 53.568 
L 111.855332 53.79138 
L 112.180311 53.568 
L 112.83027 53.568 
L 113.15525 54.126449 
L 113.480229 53.568 
L 114.130188 53.568 
L 114.455168 54.238139 
L 115.430106 53.67969 
L 115.755086 53.568 
L 116.080066 53.79138 
L 116.405045 101.036144 
L 116.730025 53.79138 
L 117.055004 57.700521 
L 117.379984 63.620078 
L 117.704963 55.019967 
L 118.029943 65.853873 
L 118.354922 54.908277 
L 118.679902 53.903069 
L 119.004881 78.028055 
L 119.329861 54.461518 
L 119.65484 54.908277 
L 119.97982 67.08246 
L 120.304799 54.126449 
L 120.629779 53.79138 
L 120.954758 55.019967 
L 121.279738 54.014759 
L 121.604717 54.908277 
L 121.929697 53.903069 
L 122.254676 54.461518 
L 122.579656 54.238139 
L 122.904636 54.238139 
L 123.229615 53.903069 
L 123.879574 53.79138 
L 124.204554 54.014759 
L 124.529533 53.67969 
L 124.854513 53.79138 
L 125.179492 54.238139 
L 125.504472 54.238139 
L 125.829451 53.79138 
L 126.154431 53.79138 
L 126.47941 54.238139 
L 126.80439 54.014759 
L 127.129369 54.014759 
L 128.104308 53.568 
L 128.429287 53.79138 
L 128.754267 53.79138 
L 129.079247 54.014759 
L 129.404226 53.79138 
L 129.729206 67.640909 
L 130.054185 53.79138 
L 130.704144 54.014759 
L 131.029124 53.903069 
L 131.354103 53.568 
L 131.679083 53.568 
L 132.329042 53.903069 
L 133.30398 53.67969 
L 133.953939 54.126449 
L 134.278919 53.67969 
L 134.603898 53.67969 
L 134.928878 53.903069 
L 135.253857 53.568 
L 135.903817 53.568 
L 136.228796 54.014759 
L 136.553776 53.568 
L 136.878755 53.568 
L 137.203735 53.79138 
L 137.528714 53.79138 
L 137.853694 53.568 
L 138.178673 53.568 
L 138.503653 53.79138 
L 138.828632 53.79138 
L 139.153612 53.568 
L 139.478591 53.79138 
L 139.803571 53.79138 
L 140.12855 53.568 
L 140.45353 53.568 
L 140.778509 53.79138 
L 141.103489 53.79138 
L 141.428468 54.014759 
L 141.753448 53.568 
L 142.078428 53.79138 
L 142.403407 53.568 
L 142.728387 53.568 
L 143.053366 53.79138 
L 143.378346 53.67969 
L 143.703325 54.908277 
L 144.028305 53.568 
L 144.353284 53.903069 
L 145.653202 53.568 
L 145.978182 53.568 
L 146.303161 53.79138 
L 146.628141 53.79138 
L 146.95312 53.568 
L 147.2781 53.568 
L 147.603079 53.79138 
L 147.928059 53.79138 
L 148.253038 53.568 
L 148.578018 53.568 
L 148.902998 53.67969 
L 149.227977 54.684898 
L 149.552957 53.79138 
L 149.877936 53.79138 
L 150.202916 54.014759 
L 150.527895 53.79138 
L 150.852875 53.79138 
L 151.177854 54.349828 
L 151.502834 53.568 
L 151.827813 53.79138 
L 152.477772 53.79138 
L 152.802752 53.903069 
L 153.127731 54.238139 
L 153.452711 54.014759 
L 154.10267 54.014759 
L 154.427649 53.79138 
L 154.752629 54.014759 
L 155.077609 54.014759 
L 155.727568 53.79138 
L 156.702506 54.349828 
L 157.027486 53.79138 
L 157.352465 53.79138 
L 157.677445 56.136864 
L 158.002424 53.903069 
L 158.652383 53.79138 
L 158.977363 54.014759 
L 159.302342 53.79138 
L 159.627322 53.79138 
L 159.952301 54.238139 
L 160.277281 53.79138 
L 160.60226 54.014759 
L 160.92724 54.014759 
L 161.252219 54.238139 
L 161.577199 53.79138 
L 162.227158 53.79138 
L 162.877117 62.50318 
L 163.202097 54.238139 
L 163.527076 53.903069 
L 163.852056 54.014759 
L 164.177035 53.903069 
L 164.502015 53.568 
L 164.826994 53.568 
L 165.151974 54.238139 
L 165.476953 53.67969 
L 165.801933 53.568 
L 166.126912 53.79138 
L 166.451892 53.568 
L 166.776871 53.568 
L 167.101851 53.67969 
L 167.75181 53.568 
L 168.07679 53.79138 
L 168.726749 53.79138 
L 169.051728 53.568 
L 169.376708 53.79138 
L 169.701687 53.568 
L 170.676626 53.568 
L 171.001605 53.67969 
L 171.326585 53.568 
L 171.651564 53.67969 
L 171.976544 53.568 
L 172.301523 53.79138 
L 172.626503 53.568 
L 173.601441 53.568 
L 174.2514 53.79138 
L 174.57638 53.568 
L 174.90136 54.126449 
L 175.226339 53.568 
L 175.551319 53.568 
L 175.876298 53.79138 
L 176.201278 53.568 
L 176.526257 53.79138 
L 176.851237 53.568 
L 177.176216 58.929108 
L 177.501196 53.79138 
L 177.826175 64.960355 
L 178.151155 54.014759 
L 178.476134 53.903069 
L 178.801114 53.568 
L 179.126093 53.79138 
L 181.40095 53.79138 
L 181.72593 53.903069 
L 182.375889 53.79138 
L 182.700868 53.79138 
L 183.025848 54.238139 
L 183.350827 53.903069 
L 184.000786 53.79138 
L 185.625684 53.79138 
L 185.950663 54.014759 
L 186.275643 53.79138 
L 186.600622 53.903069 
L 187.250581 53.79138 
L 187.575561 53.79138 
L 187.900541 54.126449 
L 188.5505 53.79138 
L 188.875479 53.79138 
L 189.200459 53.903069 
L 189.850418 53.79138 
L 191.800295 53.79138 
L 192.125274 54.014759 
L 192.450254 53.79138 
L 192.775233 54.238139 
L 193.100213 53.903069 
L 193.425192 53.79138 
L 193.750172 54.014759 
L 194.075152 53.79138 
L 194.725111 53.79138 
L 195.05009 54.014759 
L 195.37507 53.79138 
L 196.350008 53.79138 
L 196.674988 54.014759 
L 196.999967 53.79138 
L 197.324947 53.79138 
L 197.649926 54.349828 
L 197.974906 53.79138 
L 198.299885 53.79138 
L 198.624865 54.014759 
L 198.949844 53.79138 
L 199.274824 54.014759 
L 199.599803 53.79138 
L 200.574742 54.014759 
L 200.899722 53.79138 
L 201.224701 53.903069 
L 201.87466 53.79138 
L 202.19964 54.014759 
L 202.524619 54.014759 
L 202.849599 53.568 
L 203.174578 53.903069 
L 204.474496 53.568 
L 207.074333 53.568 
L 207.399312 71.103291 
L 207.724292 55.801795 
L 208.049271 53.79138 
L 208.374251 53.568 
L 208.69923 53.67969 
L 209.02421 53.568 
L 209.349189 53.79138 
L 209.674169 53.568 
L 209.999148 53.79138 
L 210.649107 53.79138 
L 210.974087 53.568 
L 211.949025 53.568 
L 212.274005 53.79138 
L 212.598984 53.79138 
L 212.923964 53.568 
L 213.573923 53.568 
L 213.898903 53.67969 
L 214.548862 53.568 
L 215.198821 53.903069 
L 215.5238 53.568 
L 215.84878 53.568 
L 216.173759 53.67969 
L 216.823718 53.568 
L 218.123636 53.568 
L 218.448616 53.67969 
L 218.773595 53.568 
L 219.098575 53.79138 
L 219.423554 53.568 
L 220.073514 53.568 
L 220.398493 53.79138 
L 220.723473 53.79138 
L 221.048452 53.568 
L 221.373432 53.568 
L 221.698411 53.79138 
L 222.023391 53.568 
L 222.34837 53.568 
L 222.998329 53.903069 
L 223.323309 54.573208 
L 223.648288 53.568 
L 223.973268 53.67969 
L 224.298247 54.238139 
L 224.623227 53.568 
L 225.598165 53.568 
L 226.573104 54.014759 
L 226.898084 53.568 
L 228.198002 53.568 
L 228.522981 53.79138 
L 228.847961 53.568 
L 230.147879 53.568 
L 230.472858 53.67969 
L 231.122817 53.568 
L 231.447797 53.67969 
L 232.097756 53.568 
L 232.422735 53.568 
L 232.747715 53.903069 
L 233.072695 53.568 
L 235.672531 53.568 
L 235.99751 53.79138 
L 236.32249 53.568 
L 236.647469 53.67969 
L 237.297428 53.568 
L 241.847142 53.568 
L 242.172121 53.79138 
L 242.82208 53.79138 
L 243.797019 53.568 
L 244.121998 53.67969 
L 244.771957 53.568 
L 245.421916 53.568 
L 245.746896 53.79138 
L 246.071876 53.568 
L 247.371794 53.568 
L 247.696773 54.238139 
L 248.021753 53.79138 
L 248.346732 53.568 
L 248.671712 53.568 
L 249.321671 53.79138 
L 249.64665 53.568 
L 250.946568 53.568 
L 251.271548 53.79138 
L 251.596527 53.79138 
L 251.921507 53.568 
L 252.571466 53.903069 
L 253.871384 53.568 
L 254.196364 53.568 
L 254.521343 53.79138 
L 254.846323 53.568 
L 255.496282 53.568 
L 255.821261 53.79138 
L 256.146241 53.79138 
L 256.47122 53.568 
L 257.121179 53.568 
L 257.446159 53.79138 
L 258.421097 53.568 
L 258.746077 53.67969 
L 259.071057 53.568 
L 259.396036 53.67969 
L 260.045995 53.568 
L 262.970811 53.568 
L 263.29579 53.903069 
L 263.62077 53.568 
L 265.570647 53.568 
L 265.895627 53.79138 
L 266.220606 53.79138 
L 266.545586 53.568 
L 266.870565 53.79138 
L 267.195545 53.568 
L 268.820442 53.568 
L 269.145422 53.79138 
L 269.470401 53.568 
L 270.12036 53.568 
L 271.095299 53.903069 
L 271.745258 53.568 
L 274.670074 53.568 
L 275.320033 53.79138 
L 275.645012 53.568 
L 278.244848 53.568 
L 278.569828 53.67969 
L 279.219787 53.568 
L 280.844685 53.568 
L 281.494644 54.126449 
L 281.819623 53.67969 
L 282.469582 53.568 
L 284.09448 53.568 
L 284.419459 64.736975 
L 284.744439 53.568 
L 285.394398 53.568 
L 285.719378 53.79138 
L 286.044357 53.568 
L 287.344275 53.568 
L 287.669255 53.79138 
L 287.994234 53.568 
L 292.543948 53.568 
L 292.868927 53.79138 
L 293.193907 53.568 
L 298.0686 53.568 
L 298.393579 53.79138 
L 298.718559 53.568 
L 299.043538 53.67969 
L 299.368518 53.568 
L 299.693497 64.736975 
L 300.018477 53.568 
L 300.343456 53.568 
L 300.668436 53.79138 
L 300.993415 53.568 
L 303.268272 53.568 
L 303.593251 53.67969 
L 304.24321 53.568 
L 306.843047 53.568 
L 307.168026 53.67969 
L 307.817985 53.568 
L 308.142965 53.568 
L 308.467944 53.67969 
L 309.117903 53.568 
L 310.092842 53.568 
L 310.417821 53.67969 
L 311.067781 53.568 
L 326.666798 53.568 
L 326.991777 53.67969 
L 327.641736 53.568 
L 330.241572 53.568 
L 330.566552 53.67969 
L 331.216511 53.568 
L 331.541491 53.79138 
L 331.86647 53.568 
L 332.19145 53.568 
L 332.516429 53.903069 
L 333.166388 53.568 
L 333.491368 53.79138 
L 333.816347 53.568 
L 346.815528 53.568 
L 347.140508 53.67969 
L 347.790467 53.568 
L 348.115446 53.79138 
L 348.440426 53.568 
L 355.589975 53.568 
L 355.914955 54.014759 
L 356.239934 53.568 
L 356.564914 53.79138 
L 356.889894 53.568 
L 358.514791 53.568 
L 358.839771 53.67969 
L 359.16475 53.568 
L 359.48973 64.960355 
L 359.814709 53.568 
L 360.789648 53.568 
L 361.114627 53.67969 
L 361.764586 53.568 
L 362.089566 53.568 
L 362.414545 53.67969 
L 363.064505 53.568 
L 373.463849 53.568 
L 373.788829 53.67969 
L 374.438788 53.568 
L 377.688583 53.568 
L 378.013563 53.79138 
L 378.338542 53.568 
L 380.938378 53.568 
L 381.263358 53.67969 
L 381.913317 53.568 
L 382.238296 53.568 
L 382.563276 54.014759 
L 382.888256 53.568 
L 383.538215 53.568 
L 383.863194 53.79138 
L 384.188174 53.568 
L 384.513153 53.79138 
L 384.838133 53.568 
L 388.412907 53.568 
L 388.737887 64.960355 
L 389.062867 53.568 
L 390.362785 53.568 
L 390.687764 53.79138 
L 391.012744 53.568 
L 391.337723 54.126449 
L 391.662703 53.67969 
L 391.987682 53.79138 
L 392.312662 53.568 
L 392.962621 53.568 
L 393.2876 53.79138 
L 393.61258 53.79138 
L 394.587518 53.568 
L 395.887437 53.568 
L 396.212416 53.79138 
L 396.537396 53.568 
L 398.487273 53.568 
L 398.487273 53.568 
" clip-path="url(#pc98ea0af9d)" style="fill: none; stroke: #1f77b4; stroke-opacity: 0.3; stroke-width: 1.5; stroke-linecap: square"/>
   </g>
   <g id="line2d_14">
    <path d="M 76.757543 88.415202 
L 77.082523 87.599867 
L 77.407502 63.430205 
L 77.732482 64.446582 
L 78.057461 62.592532 
L 78.382441 62.815911 
L 78.70742 62.536687 
L 79.0324 63.675922 
L 79.357379 60.503934 
L 79.682359 61.453296 
L 80.332318 60.749651 
L 80.657297 60.839003 
L 80.982277 59.699767 
L 81.632236 58.850925 
L 81.957215 60.10185 
L 82.282195 58.25897 
L 82.607174 58.03559 
L 82.932154 56.50544 
L 83.257133 56.527778 
L 83.907093 56.371413 
L 84.232072 55.980499 
L 84.557052 56.192709 
L 84.882031 56.259723 
L 85.207011 54.975291 
L 85.53199 57.499479 
L 85.85697 57.622338 
L 86.181949 57.566493 
L 86.506929 57.667014 
L 88.456806 57.555324 
L 88.781785 54.885939 
L 89.106765 55.85764 
L 89.431744 56.036343 
L 90.081704 55.924654 
L 90.731663 57.722859 
L 91.706601 57.868055 
L 92.031581 58.024421 
L 92.35656 57.063889 
L 92.68154 56.862848 
L 93.331499 56.739989 
L 93.981458 54.562039 
L 94.306437 54.517363 
L 94.631417 54.22697 
L 95.281376 53.970083 
L 95.606355 53.858393 
L 97.881212 54.193463 
L 101.455987 53.981252 
L 103.080885 53.690859 
L 104.055823 53.769042 
L 104.705782 53.8919 
L 105.355741 53.925407 
L 106.0057 54.126449 
L 106.980639 54.193463 
L 107.630598 64.848665 
L 107.955577 65.172565 
L 108.280557 66.814404 
L 109.580475 66.847911 
L 109.905455 66.713884 
L 110.230434 66.713884 
L 110.880393 55.991668 
L 111.205373 55.63426 
L 111.530352 53.981252 
L 113.15525 53.713197 
L 116.080066 53.780211 
L 116.405045 58.47118 
L 116.730025 58.493518 
L 117.055004 58.90677 
L 117.379984 59.911978 
L 117.704963 59.990161 
L 118.029943 61.174072 
L 118.679902 61.319269 
L 119.004881 63.765274 
L 119.329861 63.832288 
L 119.65484 59.219501 
L 119.97982 60.548609 
L 120.304799 60.191202 
L 120.629779 59.208332 
L 120.954758 59.208332 
L 121.279738 58.024421 
L 121.929697 58.024421 
L 122.254676 55.667767 
L 122.904636 55.578416 
L 123.229615 54.260476 
L 126.80439 53.958914 
L 128.104308 53.958914 
L 129.404226 53.8919 
L 129.729206 55.232177 
L 131.679083 55.19867 
L 132.654021 55.187501 
L 132.979001 53.780211 
L 138.503653 53.67969 
L 140.12855 53.702028 
L 141.103489 53.702028 
L 142.078428 53.724366 
L 143.378346 53.713197 
L 143.703325 53.847224 
L 145.978182 53.79138 
L 146.628141 53.802548 
L 146.95312 53.668521 
L 148.902998 53.668521 
L 149.552957 53.780211 
L 150.852875 53.847224 
L 151.827813 53.925407 
L 154.10267 53.947745 
L 154.752629 53.936576 
L 156.702506 54.00359 
L 157.352465 53.958914 
L 157.677445 54.193463 
L 160.60226 54.126449 
L 160.92724 53.914238 
L 161.902179 53.947745 
L 162.227158 53.925407 
L 162.552138 54.405673 
L 162.877117 55.276853 
L 165.476953 55.221008 
L 165.801933 54.718404 
L 166.126912 53.847224 
L 167.42683 53.67969 
L 176.851237 53.702028 
L 177.176216 54.22697 
L 177.501196 54.22697 
L 177.826175 55.366205 
L 179.451073 55.410881 
L 180.101032 55.433219 
L 180.426011 54.919446 
L 180.750991 54.919446 
L 181.075971 53.802548 
L 182.375889 53.802548 
L 194.725111 53.8919 
L 195.700049 53.8919 
L 196.674988 53.858393 
L 197.649926 53.8919 
L 204.149517 53.79138 
L 207.074333 53.568 
L 207.399312 55.321529 
L 207.724292 55.544909 
L 210.324128 55.645429 
L 210.649107 53.914238 
L 210.974087 53.690859 
L 212.598984 53.67969 
L 223.973268 53.746704 
L 224.623227 53.813717 
L 228.198002 53.646183 
L 229.49792 53.635014 
L 230.472858 53.601507 
L 252.896446 53.690859 
L 254.521343 53.713197 
L 257.121179 53.635014 
L 258.746077 53.657352 
L 261.020934 53.590338 
L 284.09448 53.657352 
L 284.419459 54.751911 
L 285.394398 54.684898 
L 287.019296 54.707235 
L 287.344275 54.707235 
L 287.669255 53.612676 
L 299.368518 53.601507 
L 299.693497 54.718404 
L 302.618313 54.707235 
L 302.943292 53.590338 
L 359.16475 53.601507 
L 359.48973 54.740742 
L 361.114627 54.729573 
L 362.414545 54.729573 
L 362.739525 53.590338 
L 388.412907 53.568 
L 388.737887 54.707235 
L 391.662703 54.796587 
L 391.987682 53.67969 
L 398.487273 53.590338 
L 398.487273 53.590338 
" clip-path="url(#pc98ea0af9d)" style="fill: none; stroke: #ff7f0e; stroke-width: 1.5; stroke-linecap: square"/>
   </g>
   <g id="line2d_15">
    <path d="M 73.832727 67.864288 
L 74.157707 181.676144 
L 74.482686 141.653983 
L 75.132645 111.490305 
L 75.457625 102.506726 
L 75.782604 96.807889 
L 76.107584 95.744842 
L 76.757543 88.415202 
L 77.407502 83.137861 
L 77.732482 82.263674 
L 78.70742 77.525452 
L 79.0324 77.318497 
L 79.357379 76.16656 
L 79.682359 75.835409 
L 80.332318 73.87426 
L 80.657297 73.002017 
L 80.982277 72.45328 
L 81.632236 70.964796 
L 81.957215 70.824066 
L 83.257133 68.664731 
L 84.557052 67.11531 
L 85.207011 66.421629 
L 85.53199 66.810782 
L 87.481867 65.183734 
L 88.781785 64.273581 
L 89.106765 64.29487 
L 90.406683 63.725324 
L 90.731663 63.776022 
L 92.031581 63.177237 
L 97.556233 61.098002 
L 100.481048 60.32994 
L 104.705782 59.452654 
L 106.980639 59.097185 
L 107.630598 60.019413 
L 107.955577 59.992268 
L 108.280557 60.086715 
L 116.080066 58.941897 
L 116.405045 59.260793 
L 117.379984 59.241012 
L 118.679902 59.188646 
L 119.004881 59.323213 
L 123.879574 58.915417 
L 129.404226 58.42066 
L 130.054185 58.447045 
L 140.778509 57.695665 
L 153.127731 57.092381 
L 166.451892 56.689846 
L 178.801114 56.387132 
L 201.549681 55.938147 
L 231.772776 55.543785 
L 271.420278 55.16045 
L 320.167207 54.879141 
L 391.012744 54.614134 
L 398.487273 54.591748 
L 398.487273 54.591748 
" clip-path="url(#pc98ea0af9d)" style="fill: none; stroke: #2ca02c; stroke-width: 1.5; stroke-linecap: square"/>
   </g>
   <g id="line2d_16">
    <defs>
     <path id="m39d818e361" d="M 0 2.5 
C 0.663008 2.5 1.29895 2.236584 1.767767 1.767767 
C 2.236584 1.29895 2.5 0.663008 2.5 0 
C 2.5 -0.663008 2.236584 -1.29895 1.767767 -1.767767 
C 1.29895 -2.236584 0.663008 -2.5 0 -2.5 
C -0.663008 -2.5 -1.29895 -2.236584 -1.767767 -1.767767 
C -2.236584 -1.29895 -2.5 -0.663008 -2.5 0 
C -2.5 0.663008 -2.236584 1.29895 -1.767767 1.767767 
C -1.29895 2.236584 -0.663008 2.5 0 2.5 
z
" style="stroke: #ff0000"/>
    </defs>
    <g clip-path="url(#pc98ea0af9d)">
     <use xlink:href="#m39d818e361" x="81.307256" y="53.568" style="fill: #ff0000; stroke: #ff0000"/>
    </g>
   </g>
   <g id="line2d_17">
    <path d="M 81.307256 307.584 
L 81.307256 41.472 
" clip-path="url(#pc98ea0af9d)" style="fill: none; stroke-dasharray: 5.55,2.4; stroke-dashoffset: 0; stroke: #ff0000; stroke-width: 1.5"/>
   </g>
   <g id="patch_3">
    <path d="M 57.6 307.584 
L 57.6 41.472 
" style="fill: none; stroke: #000000; stroke-width: 0.8; stroke-linejoin: miter; stroke-linecap: square"/>
   </g>
   <g id="patch_4">
    <path d="M 414.72 307.584 
L 414.72 41.472 
" style="fill: none; stroke: #000000; stroke-width: 0.8; stroke-linejoin: miter; stroke-linecap: square"/>
   </g>
   <g id="patch_5">
    <path d="M 57.6 307.584 
L 414.72 307.584 
" style="fill: none; stroke: #000000; stroke-width: 0.8; stroke-linejoin: miter; stroke-linecap: square"/>
   </g>
   <g id="patch_6">
    <path d="M 57.6 41.472 
L 414.72 41.472 
" style="fill: none; stroke: #000000; stroke-width: 0.8; stroke-linejoin: miter; stroke-linecap: square"/>
   </g>
   <g id="text_14">
    <!-- -17 -->
    <g transform="translate(84.557052 51.892654) scale(0.1 -0.1)">
     <defs>
      <path id="DejaVuSans-2d" d="M 313 2009 
L 1997 2009 
L 1997 1497 
L 313 1497 
L 313 2009 
z
" transform="scale(0.015625)"/>
      <path id="DejaVuSans-37" d="M 525 4666 
L 3525 4666 
L 3525 4397 
L 1831 0 
L 1172 0 
L 2766 4134 
L 525 4134 
L 525 4666 
z
" transform="scale(0.015625)"/>
     </defs>
     <use xlink:href="#DejaVuSans-2d"/>
     <use xlink:href="#DejaVuSans-31" x="36.083984"/>
     <use xlink:href="#DejaVuSans-37" x="99.707031"/>
    </g>
   </g>
   <g id="legend_1">
    <g id="patch_7">
     <path d="M 225.887187 302.584 
L 407.72 302.584 
Q 409.72 302.584 409.72 300.584 
L 409.72 242.8715 
Q 409.72 240.8715 407.72 240.8715 
L 225.887187 240.8715 
Q 223.887187 240.8715 223.887187 242.8715 
L 223.887187 300.584 
Q 223.887187 302.584 225.887187 302.584 
z
" style="fill: #ffffff; opacity: 0.8; stroke: #cccccc; stroke-linejoin: miter"/>
    </g>
    <g id="line2d_18">
     <path d="M 227.887187 248.969937 
L 237.887187 248.969937 
L 247.887187 248.969937 
" style="fill: none; stroke: #1f77b4; stroke-opacity: 0.3; stroke-width: 1.5; stroke-linecap: square"/>
    </g>
    <g id="text_15">
     <!-- reward per episode -->
     <g transform="translate(255.887187 252.469937) scale(0.1 -0.1)">
      <use xlink:href="#DejaVuSans-72"/>
      <use xlink:href="#DejaVuSans-65" x="38.863281"/>
      <use xlink:href="#DejaVuSans-77" x="100.386719"/>
      <use xlink:href="#DejaVuSans-61" x="182.173828"/>
      <use xlink:href="#DejaVuSans-72" x="243.453125"/>
      <use xlink:href="#DejaVuSans-64" x="282.816406"/>
      <use xlink:href="#DejaVuSans-20" x="346.292969"/>
      <use xlink:href="#DejaVuSans-70" x="378.080078"/>
      <use xlink:href="#DejaVuSans-65" x="441.556641"/>
      <use xlink:href="#DejaVuSans-72" x="503.080078"/>
      <use xlink:href="#DejaVuSans-20" x="544.193359"/>
      <use xlink:href="#DejaVuSans-65" x="575.980469"/>
      <use xlink:href="#DejaVuSans-70" x="637.503906"/>
      <use xlink:href="#DejaVuSans-69" x="700.980469"/>
      <use xlink:href="#DejaVuSans-73" x="728.763672"/>
      <use xlink:href="#DejaVuSans-6f" x="780.863281"/>
      <use xlink:href="#DejaVuSans-64" x="842.044922"/>
      <use xlink:href="#DejaVuSans-65" x="905.521484"/>
     </g>
    </g>
    <g id="line2d_19">
     <path d="M 227.887187 263.648062 
L 237.887187 263.648062 
L 247.887187 263.648062 
" style="fill: none; stroke: #ff7f0e; stroke-width: 1.5; stroke-linecap: square"/>
    </g>
    <g id="text_16">
     <!-- smoothed reward per episode -->
     <g transform="translate(255.887187 267.148062) scale(0.1 -0.1)">
      <defs>
       <path id="DejaVuSans-6d" d="M 3328 2828 
Q 3544 3216 3844 3400 
Q 4144 3584 4550 3584 
Q 5097 3584 5394 3201 
Q 5691 2819 5691 2113 
L 5691 0 
L 5113 0 
L 5113 2094 
Q 5113 2597 4934 2840 
Q 4756 3084 4391 3084 
Q 3944 3084 3684 2787 
Q 3425 2491 3425 1978 
L 3425 0 
L 2847 0 
L 2847 2094 
Q 2847 2600 2669 2842 
Q 2491 3084 2119 3084 
Q 1678 3084 1418 2786 
Q 1159 2488 1159 1978 
L 1159 0 
L 581 0 
L 581 3500 
L 1159 3500 
L 1159 2956 
Q 1356 3278 1631 3431 
Q 1906 3584 2284 3584 
Q 2666 3584 2933 3390 
Q 3200 3197 3328 2828 
z
" transform="scale(0.015625)"/>
       <path id="DejaVuSans-74" d="M 1172 4494 
L 1172 3500 
L 2356 3500 
L 2356 3053 
L 1172 3053 
L 1172 1153 
Q 1172 725 1289 603 
Q 1406 481 1766 481 
L 2356 481 
L 2356 0 
L 1766 0 
Q 1100 0 847 248 
Q 594 497 594 1153 
L 594 3053 
L 172 3053 
L 172 3500 
L 594 3500 
L 594 4494 
L 1172 4494 
z
" transform="scale(0.015625)"/>
       <path id="DejaVuSans-68" d="M 3513 2113 
L 3513 0 
L 2938 0 
L 2938 2094 
Q 2938 2591 2744 2837 
Q 2550 3084 2163 3084 
Q 1697 3084 1428 2787 
Q 1159 2491 1159 1978 
L 1159 0 
L 581 0 
L 581 4863 
L 1159 4863 
L 1159 2956 
Q 1366 3272 1645 3428 
Q 1925 3584 2291 3584 
Q 2894 3584 3203 3211 
Q 3513 2838 3513 2113 
z
" transform="scale(0.015625)"/>
      </defs>
      <use xlink:href="#DejaVuSans-73"/>
      <use xlink:href="#DejaVuSans-6d" x="52.099609"/>
      <use xlink:href="#DejaVuSans-6f" x="149.511719"/>
      <use xlink:href="#DejaVuSans-6f" x="210.693359"/>
      <use xlink:href="#DejaVuSans-74" x="271.875"/>
      <use xlink:href="#DejaVuSans-68" x="311.083984"/>
      <use xlink:href="#DejaVuSans-65" x="374.462891"/>
      <use xlink:href="#DejaVuSans-64" x="435.986328"/>
      <use xlink:href="#DejaVuSans-20" x="499.462891"/>
      <use xlink:href="#DejaVuSans-72" x="531.25"/>
      <use xlink:href="#DejaVuSans-65" x="570.113281"/>
      <use xlink:href="#DejaVuSans-77" x="631.636719"/>
      <use xlink:href="#DejaVuSans-61" x="713.423828"/>
      <use xlink:href="#DejaVuSans-72" x="774.703125"/>
      <use xlink:href="#DejaVuSans-64" x="814.066406"/>
      <use xlink:href="#DejaVuSans-20" x="877.542969"/>
      <use xlink:href="#DejaVuSans-70" x="909.330078"/>
      <use xlink:href="#DejaVuSans-65" x="972.806641"/>
      <use xlink:href="#DejaVuSans-72" x="1034.330078"/>
      <use xlink:href="#DejaVuSans-20" x="1075.443359"/>
      <use xlink:href="#DejaVuSans-65" x="1107.230469"/>
      <use xlink:href="#DejaVuSans-70" x="1168.753906"/>
      <use xlink:href="#DejaVuSans-69" x="1232.230469"/>
      <use xlink:href="#DejaVuSans-73" x="1260.013672"/>
      <use xlink:href="#DejaVuSans-6f" x="1312.113281"/>
      <use xlink:href="#DejaVuSans-64" x="1373.294922"/>
      <use xlink:href="#DejaVuSans-65" x="1436.771484"/>
     </g>
    </g>
    <g id="line2d_20">
     <path d="M 227.887187 278.326187 
L 237.887187 278.326187 
L 247.887187 278.326187 
" style="fill: none; stroke: #2ca02c; stroke-width: 1.5; stroke-linecap: square"/>
    </g>
    <g id="text_17">
     <!-- mean reward per episode -->
     <g transform="translate(255.887187 281.826187) scale(0.1 -0.1)">
      <defs>
       <path id="DejaVuSans-6e" d="M 3513 2113 
L 3513 0 
L 2938 0 
L 2938 2094 
Q 2938 2591 2744 2837 
Q 2550 3084 2163 3084 
Q 1697 3084 1428 2787 
Q 1159 2491 1159 1978 
L 1159 0 
L 581 0 
L 581 3500 
L 1159 3500 
L 1159 2956 
Q 1366 3272 1645 3428 
Q 1925 3584 2291 3584 
Q 2894 3584 3203 3211 
Q 3513 2838 3513 2113 
z
" transform="scale(0.015625)"/>
      </defs>
      <use xlink:href="#DejaVuSans-6d"/>
      <use xlink:href="#DejaVuSans-65" x="97.412109"/>
      <use xlink:href="#DejaVuSans-61" x="158.935547"/>
      <use xlink:href="#DejaVuSans-6e" x="220.214844"/>
      <use xlink:href="#DejaVuSans-20" x="283.59375"/>
      <use xlink:href="#DejaVuSans-72" x="315.380859"/>
      <use xlink:href="#DejaVuSans-65" x="354.244141"/>
      <use xlink:href="#DejaVuSans-77" x="415.767578"/>
      <use xlink:href="#DejaVuSans-61" x="497.554688"/>
      <use xlink:href="#DejaVuSans-72" x="558.833984"/>
      <use xlink:href="#DejaVuSans-64" x="598.197266"/>
      <use xlink:href="#DejaVuSans-20" x="661.673828"/>
      <use xlink:href="#DejaVuSans-70" x="693.460938"/>
      <use xlink:href="#DejaVuSans-65" x="756.9375"/>
      <use xlink:href="#DejaVuSans-72" x="818.460938"/>
      <use xlink:href="#DejaVuSans-20" x="859.574219"/>
      <use xlink:href="#DejaVuSans-65" x="891.361328"/>
      <use xlink:href="#DejaVuSans-70" x="952.884766"/>
      <use xlink:href="#DejaVuSans-69" x="1016.361328"/>
      <use xlink:href="#DejaVuSans-73" x="1044.144531"/>
      <use xlink:href="#DejaVuSans-6f" x="1096.244141"/>
      <use xlink:href="#DejaVuSans-64" x="1157.425781"/>
      <use xlink:href="#DejaVuSans-65" x="1220.902344"/>
     </g>
    </g>
    <g id="line2d_21">
     <g>
      <use xlink:href="#m39d818e361" x="237.887187" y="293.004312" style="fill: #ff0000; stroke: #ff0000"/>
     </g>
    </g>
    <g id="text_18">
     <!-- max reward -->
     <g transform="translate(255.887187 296.504312) scale(0.1 -0.1)">
      <defs>
       <path id="DejaVuSans-78" d="M 3513 3500 
L 2247 1797 
L 3578 0 
L 2900 0 
L 1881 1375 
L 863 0 
L 184 0 
L 1544 1831 
L 300 3500 
L 978 3500 
L 1906 2253 
L 2834 3500 
L 3513 3500 
z
" transform="scale(0.015625)"/>
      </defs>
      <use xlink:href="#DejaVuSans-6d"/>
      <use xlink:href="#DejaVuSans-61" x="97.412109"/>
      <use xlink:href="#DejaVuSans-78" x="158.691406"/>
      <use xlink:href="#DejaVuSans-20" x="217.871094"/>
      <use xlink:href="#DejaVuSans-72" x="249.658203"/>
      <use xlink:href="#DejaVuSans-65" x="288.521484"/>
      <use xlink:href="#DejaVuSans-77" x="350.044922"/>
      <use xlink:href="#DejaVuSans-61" x="431.832031"/>
      <use xlink:href="#DejaVuSans-72" x="493.111328"/>
      <use xlink:href="#DejaVuSans-64" x="532.474609"/>
     </g>
    </g>
   </g>
  </g>
 </g>
 <defs>
  <clipPath id="pc98ea0af9d">
   <rect x="57.6" y="41.472" width="357.12" height="266.112"/>
  </clipPath>
 </defs>
</svg>
