<?xml version="1.0" encoding="utf-8" standalone="no"?>
<!DOCTYPE svg PUBLIC "-//W3C//DTD SVG 1.1//EN"
  "http://www.w3.org/Graphics/SVG/1.1/DTD/svg11.dtd">
<svg xmlns:xlink="http://www.w3.org/1999/xlink" width="460.8pt" height="345.6pt" viewBox="0 0 460.8 345.6" xmlns="http://www.w3.org/2000/svg" version="1.1">
 <metadata>
  <rdf:RDF xmlns:dc="http://purl.org/dc/elements/1.1/" xmlns:cc="http://creativecommons.org/ns#" xmlns:rdf="http://www.w3.org/1999/02/22-rdf-syntax-ns#">
   <cc:Work>
    <dc:type rdf:resource="http://purl.org/dc/dcmitype/StillImage"/>
    <dc:date>2023-11-04T12:46:26.401021</dc:date>
    <dc:format>image/svg+xml</dc:format>
    <dc:creator>
     <cc:Agent>
      <dc:title>Matplotlib v3.8.0, https://matplotlib.org/</dc:title>
     </cc:Agent>
    </dc:creator>
   </cc:Work>
  </rdf:RDF>
 </metadata>
 <defs>
  <style type="text/css">*{stroke-linejoin: round; stroke-linecap: butt}</style>
 </defs>
 <g id="figure_1">
  <g id="patch_1">
   <path d="M 0 345.6 
L 460.8 345.6 
L 460.8 0 
L 0 0 
z
" style="fill: #ffffff"/>
  </g>
  <g id="axes_1">
   <g id="patch_2">
    <path d="M 57.6 307.584 
L 414.72 307.584 
L 414.72 41.472 
L 57.6 41.472 
z
" style="fill: #ffffff"/>
   </g>
   <g id="matplotlib.axis_1">
    <g id="xtick_1">
     <g id="line2d_1">
      <defs>
       <path id="me388ed46bf" d="M 0 0 
L 0 3.5 
" style="stroke: #000000; stroke-width: 0.8"/>
      </defs>
      <g>
       <use xlink:href="#me388ed46bf" x="73.832727" y="307.584" style="stroke: #000000; stroke-width: 0.8"/>
      </g>
     </g>
    </g>
    <g id="xtick_2">
     <g id="line2d_2">
      <g>
       <use xlink:href="#me388ed46bf" x="138.828632" y="307.584" style="stroke: #000000; stroke-width: 0.8"/>
      </g>
     </g>
     <g id="text_1">
      <!-- 200 -->
      <g transform="translate(129.284882 322.182437) scale(0.1 -0.1)">
       <defs>
        <path id="DejaVuSans-32" d="M 1228 531 
L 3431 531 
L 3431 0 
L 469 0 
L 469 531 
Q 828 903 1448 1529 
Q 2069 2156 2228 2338 
Q 2531 2678 2651 2914 
Q 2772 3150 2772 3378 
Q 2772 3750 2511 3984 
Q 2250 4219 1831 4219 
Q 1534 4219 1204 4116 
Q 875 4013 500 3803 
L 500 4441 
Q 881 4594 1212 4672 
Q 1544 4750 1819 4750 
Q 2544 4750 2975 4387 
Q 3406 4025 3406 3419 
Q 3406 3131 3298 2873 
Q 3191 2616 2906 2266 
Q 2828 2175 2409 1742 
Q 1991 1309 1228 531 
z
" transform="scale(0.015625)"/>
        <path id="DejaVuSans-30" d="M 2034 4250 
Q 1547 4250 1301 3770 
Q 1056 3291 1056 2328 
Q 1056 1369 1301 889 
Q 1547 409 2034 409 
Q 2525 409 2770 889 
Q 3016 1369 3016 2328 
Q 3016 3291 2770 3770 
Q 2525 4250 2034 4250 
z
M 2034 4750 
Q 2819 4750 3233 4129 
Q 3647 3509 3647 2328 
Q 3647 1150 3233 529 
Q 2819 -91 2034 -91 
Q 1250 -91 836 529 
Q 422 1150 422 2328 
Q 422 3509 836 4129 
Q 1250 4750 2034 4750 
z
" transform="scale(0.015625)"/>
       </defs>
       <use xlink:href="#DejaVuSans-32"/>
       <use xlink:href="#DejaVuSans-30" x="63.623047"/>
       <use xlink:href="#DejaVuSans-30" x="127.246094"/>
      </g>
     </g>
    </g>
    <g id="xtick_3">
     <g id="line2d_3">
      <g>
       <use xlink:href="#me388ed46bf" x="203.824537" y="307.584" style="stroke: #000000; stroke-width: 0.8"/>
      </g>
     </g>
     <g id="text_2">
      <!-- 400 -->
      <g transform="translate(194.280787 322.182437) scale(0.1 -0.1)">
       <defs>
        <path id="DejaVuSans-34" d="M 2419 4116 
L 825 1625 
L 2419 1625 
L 2419 4116 
z
M 2253 4666 
L 3047 4666 
L 3047 1625 
L 3713 1625 
L 3713 1100 
L 3047 1100 
L 3047 0 
L 2419 0 
L 2419 1100 
L 313 1100 
L 313 1709 
L 2253 4666 
z
" transform="scale(0.015625)"/>
       </defs>
       <use xlink:href="#DejaVuSans-34"/>
       <use xlink:href="#DejaVuSans-30" x="63.623047"/>
       <use xlink:href="#DejaVuSans-30" x="127.246094"/>
      </g>
     </g>
    </g>
    <g id="xtick_4">
     <g id="line2d_4">
      <g>
       <use xlink:href="#me388ed46bf" x="268.820442" y="307.584" style="stroke: #000000; stroke-width: 0.8"/>
      </g>
     </g>
     <g id="text_3">
      <!-- 600 -->
      <g transform="translate(259.276692 322.182437) scale(0.1 -0.1)">
       <defs>
        <path id="DejaVuSans-36" d="M 2113 2584 
Q 1688 2584 1439 2293 
Q 1191 2003 1191 1497 
Q 1191 994 1439 701 
Q 1688 409 2113 409 
Q 2538 409 2786 701 
Q 3034 994 3034 1497 
Q 3034 2003 2786 2293 
Q 2538 2584 2113 2584 
z
M 3366 4563 
L 3366 3988 
Q 3128 4100 2886 4159 
Q 2644 4219 2406 4219 
Q 1781 4219 1451 3797 
Q 1122 3375 1075 2522 
Q 1259 2794 1537 2939 
Q 1816 3084 2150 3084 
Q 2853 3084 3261 2657 
Q 3669 2231 3669 1497 
Q 3669 778 3244 343 
Q 2819 -91 2113 -91 
Q 1303 -91 875 529 
Q 447 1150 447 2328 
Q 447 3434 972 4092 
Q 1497 4750 2381 4750 
Q 2619 4750 2861 4703 
Q 3103 4656 3366 4563 
z
" transform="scale(0.015625)"/>
       </defs>
       <use xlink:href="#DejaVuSans-36"/>
       <use xlink:href="#DejaVuSans-30" x="63.623047"/>
       <use xlink:href="#DejaVuSans-30" x="127.246094"/>
      </g>
     </g>
    </g>
    <g id="xtick_5">
     <g id="line2d_5">
      <g>
       <use xlink:href="#me388ed46bf" x="333.816347" y="307.584" style="stroke: #000000; stroke-width: 0.8"/>
      </g>
     </g>
     <g id="text_4">
      <!-- 800 -->
      <g transform="translate(324.272597 322.182437) scale(0.1 -0.1)">
       <defs>
        <path id="DejaVuSans-38" d="M 2034 2216 
Q 1584 2216 1326 1975 
Q 1069 1734 1069 1313 
Q 1069 891 1326 650 
Q 1584 409 2034 409 
Q 2484 409 2743 651 
Q 3003 894 3003 1313 
Q 3003 1734 2745 1975 
Q 2488 2216 2034 2216 
z
M 1403 2484 
Q 997 2584 770 2862 
Q 544 3141 544 3541 
Q 544 4100 942 4425 
Q 1341 4750 2034 4750 
Q 2731 4750 3128 4425 
Q 3525 4100 3525 3541 
Q 3525 3141 3298 2862 
Q 3072 2584 2669 2484 
Q 3125 2378 3379 2068 
Q 3634 1759 3634 1313 
Q 3634 634 3220 271 
Q 2806 -91 2034 -91 
Q 1263 -91 848 271 
Q 434 634 434 1313 
Q 434 1759 690 2068 
Q 947 2378 1403 2484 
z
M 1172 3481 
Q 1172 3119 1398 2916 
Q 1625 2713 2034 2713 
Q 2441 2713 2670 2916 
Q 2900 3119 2900 3481 
Q 2900 3844 2670 4047 
Q 2441 4250 2034 4250 
Q 1625 4250 1398 4047 
Q 1172 3844 1172 3481 
z
" transform="scale(0.015625)"/>
       </defs>
       <use xlink:href="#DejaVuSans-38"/>
       <use xlink:href="#DejaVuSans-30" x="63.623047"/>
       <use xlink:href="#DejaVuSans-30" x="127.246094"/>
      </g>
     </g>
    </g>
    <g id="xtick_6">
     <g id="line2d_6">
      <g>
       <use xlink:href="#me388ed46bf" x="398.812252" y="307.584" style="stroke: #000000; stroke-width: 0.8"/>
      </g>
     </g>
     <g id="text_5">
      <!-- 1000 -->
      <g transform="translate(386.087252 322.182437) scale(0.1 -0.1)">
       <defs>
        <path id="DejaVuSans-31" d="M 794 531 
L 1825 531 
L 1825 4091 
L 703 3866 
L 703 4441 
L 1819 4666 
L 2450 4666 
L 2450 531 
L 3481 531 
L 3481 0 
L 794 0 
L 794 531 
z
" transform="scale(0.015625)"/>
       </defs>
       <use xlink:href="#DejaVuSans-31"/>
       <use xlink:href="#DejaVuSans-30" x="63.623047"/>
       <use xlink:href="#DejaVuSans-30" x="127.246094"/>
       <use xlink:href="#DejaVuSans-30" x="190.869141"/>
      </g>
     </g>
    </g>
    <g id="xtick_7">
     <g id="line2d_7">
      <g>
       <use xlink:href="#me388ed46bf" x="95.606355" y="307.584" style="stroke: #000000; stroke-width: 0.8"/>
      </g>
     </g>
     <g id="text_6">
      <!-- 67 -->
      <g transform="translate(89.243855 322.182437) scale(0.1 -0.1)">
       <defs>
        <path id="DejaVuSans-37" d="M 525 4666 
L 3525 4666 
L 3525 4397 
L 1831 0 
L 1172 0 
L 2766 4134 
L 525 4134 
L 525 4666 
z
" transform="scale(0.015625)"/>
       </defs>
       <use xlink:href="#DejaVuSans-36"/>
       <use xlink:href="#DejaVuSans-37" x="63.623047"/>
      </g>
     </g>
    </g>
    <g id="text_7">
     <!-- episode -->
     <g transform="translate(216.605312 335.860562) scale(0.1 -0.1)">
      <defs>
       <path id="DejaVuSans-65" d="M 3597 1894 
L 3597 1613 
L 953 1613 
Q 991 1019 1311 708 
Q 1631 397 2203 397 
Q 2534 397 2845 478 
Q 3156 559 3463 722 
L 3463 178 
Q 3153 47 2828 -22 
Q 2503 -91 2169 -91 
Q 1331 -91 842 396 
Q 353 884 353 1716 
Q 353 2575 817 3079 
Q 1281 3584 2069 3584 
Q 2775 3584 3186 3129 
Q 3597 2675 3597 1894 
z
M 3022 2063 
Q 3016 2534 2758 2815 
Q 2500 3097 2075 3097 
Q 1594 3097 1305 2825 
Q 1016 2553 972 2059 
L 3022 2063 
z
" transform="scale(0.015625)"/>
       <path id="DejaVuSans-70" d="M 1159 525 
L 1159 -1331 
L 581 -1331 
L 581 3500 
L 1159 3500 
L 1159 2969 
Q 1341 3281 1617 3432 
Q 1894 3584 2278 3584 
Q 2916 3584 3314 3078 
Q 3713 2572 3713 1747 
Q 3713 922 3314 415 
Q 2916 -91 2278 -91 
Q 1894 -91 1617 61 
Q 1341 213 1159 525 
z
M 3116 1747 
Q 3116 2381 2855 2742 
Q 2594 3103 2138 3103 
Q 1681 3103 1420 2742 
Q 1159 2381 1159 1747 
Q 1159 1113 1420 752 
Q 1681 391 2138 391 
Q 2594 391 2855 752 
Q 3116 1113 3116 1747 
z
" transform="scale(0.015625)"/>
       <path id="DejaVuSans-69" d="M 603 3500 
L 1178 3500 
L 1178 0 
L 603 0 
L 603 3500 
z
M 603 4863 
L 1178 4863 
L 1178 4134 
L 603 4134 
L 603 4863 
z
" transform="scale(0.015625)"/>
       <path id="DejaVuSans-73" d="M 2834 3397 
L 2834 2853 
Q 2591 2978 2328 3040 
Q 2066 3103 1784 3103 
Q 1356 3103 1142 2972 
Q 928 2841 928 2578 
Q 928 2378 1081 2264 
Q 1234 2150 1697 2047 
L 1894 2003 
Q 2506 1872 2764 1633 
Q 3022 1394 3022 966 
Q 3022 478 2636 193 
Q 2250 -91 1575 -91 
Q 1294 -91 989 -36 
Q 684 19 347 128 
L 347 722 
Q 666 556 975 473 
Q 1284 391 1588 391 
Q 1994 391 2212 530 
Q 2431 669 2431 922 
Q 2431 1156 2273 1281 
Q 2116 1406 1581 1522 
L 1381 1569 
Q 847 1681 609 1914 
Q 372 2147 372 2553 
Q 372 3047 722 3315 
Q 1072 3584 1716 3584 
Q 2034 3584 2315 3537 
Q 2597 3491 2834 3397 
z
" transform="scale(0.015625)"/>
       <path id="DejaVuSans-6f" d="M 1959 3097 
Q 1497 3097 1228 2736 
Q 959 2375 959 1747 
Q 959 1119 1226 758 
Q 1494 397 1959 397 
Q 2419 397 2687 759 
Q 2956 1122 2956 1747 
Q 2956 2369 2687 2733 
Q 2419 3097 1959 3097 
z
M 1959 3584 
Q 2709 3584 3137 3096 
Q 3566 2609 3566 1747 
Q 3566 888 3137 398 
Q 2709 -91 1959 -91 
Q 1206 -91 779 398 
Q 353 888 353 1747 
Q 353 2609 779 3096 
Q 1206 3584 1959 3584 
z
" transform="scale(0.015625)"/>
       <path id="DejaVuSans-64" d="M 2906 2969 
L 2906 4863 
L 3481 4863 
L 3481 0 
L 2906 0 
L 2906 525 
Q 2725 213 2448 61 
Q 2172 -91 1784 -91 
Q 1150 -91 751 415 
Q 353 922 353 1747 
Q 353 2572 751 3078 
Q 1150 3584 1784 3584 
Q 2172 3584 2448 3432 
Q 2725 3281 2906 2969 
z
M 947 1747 
Q 947 1113 1208 752 
Q 1469 391 1925 391 
Q 2381 391 2643 752 
Q 2906 1113 2906 1747 
Q 2906 2381 2643 2742 
Q 2381 3103 1925 3103 
Q 1469 3103 1208 2742 
Q 947 2381 947 1747 
z
" transform="scale(0.015625)"/>
      </defs>
      <use xlink:href="#DejaVuSans-65"/>
      <use xlink:href="#DejaVuSans-70" x="61.523438"/>
      <use xlink:href="#DejaVuSans-69" x="125"/>
      <use xlink:href="#DejaVuSans-73" x="152.783203"/>
      <use xlink:href="#DejaVuSans-6f" x="204.882812"/>
      <use xlink:href="#DejaVuSans-64" x="266.064453"/>
      <use xlink:href="#DejaVuSans-65" x="329.541016"/>
     </g>
    </g>
   </g>
   <g id="matplotlib.axis_2">
    <g id="ytick_1">
     <g id="line2d_8">
      <defs>
       <path id="me625c7e62f" d="M 0 0 
L -3.5 0 
" style="stroke: #000000; stroke-width: 0.8"/>
      </defs>
      <g>
       <use xlink:href="#me625c7e62f" x="57.6" y="261.21817" style="stroke: #000000; stroke-width: 0.8"/>
      </g>
     </g>
     <g id="text_8">
      <!-- −4000 -->
      <g transform="translate(16.770313 265.017389) scale(0.1 -0.1)">
       <defs>
        <path id="DejaVuSans-2212" d="M 678 2272 
L 4684 2272 
L 4684 1741 
L 678 1741 
L 678 2272 
z
" transform="scale(0.015625)"/>
       </defs>
       <use xlink:href="#DejaVuSans-2212"/>
       <use xlink:href="#DejaVuSans-34" x="83.789062"/>
       <use xlink:href="#DejaVuSans-30" x="147.412109"/>
       <use xlink:href="#DejaVuSans-30" x="211.035156"/>
       <use xlink:href="#DejaVuSans-30" x="274.658203"/>
      </g>
     </g>
    </g>
    <g id="ytick_2">
     <g id="line2d_9">
      <g>
       <use xlink:href="#me625c7e62f" x="57.6" y="209.136362" style="stroke: #000000; stroke-width: 0.8"/>
      </g>
     </g>
     <g id="text_9">
      <!-- −3000 -->
      <g transform="translate(16.770313 212.93558) scale(0.1 -0.1)">
       <defs>
        <path id="DejaVuSans-33" d="M 2597 2516 
Q 3050 2419 3304 2112 
Q 3559 1806 3559 1356 
Q 3559 666 3084 287 
Q 2609 -91 1734 -91 
Q 1441 -91 1130 -33 
Q 819 25 488 141 
L 488 750 
Q 750 597 1062 519 
Q 1375 441 1716 441 
Q 2309 441 2620 675 
Q 2931 909 2931 1356 
Q 2931 1769 2642 2001 
Q 2353 2234 1838 2234 
L 1294 2234 
L 1294 2753 
L 1863 2753 
Q 2328 2753 2575 2939 
Q 2822 3125 2822 3475 
Q 2822 3834 2567 4026 
Q 2313 4219 1838 4219 
Q 1578 4219 1281 4162 
Q 984 4106 628 3988 
L 628 4550 
Q 988 4650 1302 4700 
Q 1616 4750 1894 4750 
Q 2613 4750 3031 4423 
Q 3450 4097 3450 3541 
Q 3450 3153 3228 2886 
Q 3006 2619 2597 2516 
z
" transform="scale(0.015625)"/>
       </defs>
       <use xlink:href="#DejaVuSans-2212"/>
       <use xlink:href="#DejaVuSans-33" x="83.789062"/>
       <use xlink:href="#DejaVuSans-30" x="147.412109"/>
       <use xlink:href="#DejaVuSans-30" x="211.035156"/>
       <use xlink:href="#DejaVuSans-30" x="274.658203"/>
      </g>
     </g>
    </g>
    <g id="ytick_3">
     <g id="line2d_10">
      <g>
       <use xlink:href="#me625c7e62f" x="57.6" y="157.054553" style="stroke: #000000; stroke-width: 0.8"/>
      </g>
     </g>
     <g id="text_10">
      <!-- −2000 -->
      <g transform="translate(16.770313 160.853772) scale(0.1 -0.1)">
       <use xlink:href="#DejaVuSans-2212"/>
       <use xlink:href="#DejaVuSans-32" x="83.789062"/>
       <use xlink:href="#DejaVuSans-30" x="147.412109"/>
       <use xlink:href="#DejaVuSans-30" x="211.035156"/>
       <use xlink:href="#DejaVuSans-30" x="274.658203"/>
      </g>
     </g>
    </g>
    <g id="ytick_4">
     <g id="line2d_11">
      <g>
       <use xlink:href="#me625c7e62f" x="57.6" y="104.972745" style="stroke: #000000; stroke-width: 0.8"/>
      </g>
     </g>
     <g id="text_11">
      <!-- −1000 -->
      <g transform="translate(16.770313 108.771964) scale(0.1 -0.1)">
       <use xlink:href="#DejaVuSans-2212"/>
       <use xlink:href="#DejaVuSans-31" x="83.789062"/>
       <use xlink:href="#DejaVuSans-30" x="147.412109"/>
       <use xlink:href="#DejaVuSans-30" x="211.035156"/>
       <use xlink:href="#DejaVuSans-30" x="274.658203"/>
      </g>
     </g>
    </g>
    <g id="ytick_5">
     <g id="line2d_12">
      <g>
       <use xlink:href="#me625c7e62f" x="57.6" y="52.890936" style="stroke: #000000; stroke-width: 0.8"/>
      </g>
     </g>
     <g id="text_12">
      <!-- 0 -->
      <g transform="translate(44.2375 56.690155) scale(0.1 -0.1)">
       <use xlink:href="#DejaVuSans-30"/>
      </g>
     </g>
    </g>
    <g id="text_13">
     <!-- episode reward -->
     <g transform="translate(10.690625 212.986594) rotate(-90) scale(0.1 -0.1)">
      <defs>
       <path id="DejaVuSans-20" transform="scale(0.015625)"/>
       <path id="DejaVuSans-72" d="M 2631 2963 
Q 2534 3019 2420 3045 
Q 2306 3072 2169 3072 
Q 1681 3072 1420 2755 
Q 1159 2438 1159 1844 
L 1159 0 
L 581 0 
L 581 3500 
L 1159 3500 
L 1159 2956 
Q 1341 3275 1631 3429 
Q 1922 3584 2338 3584 
Q 2397 3584 2469 3576 
Q 2541 3569 2628 3553 
L 2631 2963 
z
" transform="scale(0.015625)"/>
       <path id="DejaVuSans-77" d="M 269 3500 
L 844 3500 
L 1563 769 
L 2278 3500 
L 2956 3500 
L 3675 769 
L 4391 3500 
L 4966 3500 
L 4050 0 
L 3372 0 
L 2619 2869 
L 1863 0 
L 1184 0 
L 269 3500 
z
" transform="scale(0.015625)"/>
       <path id="DejaVuSans-61" d="M 2194 1759 
Q 1497 1759 1228 1600 
Q 959 1441 959 1056 
Q 959 750 1161 570 
Q 1363 391 1709 391 
Q 2188 391 2477 730 
Q 2766 1069 2766 1631 
L 2766 1759 
L 2194 1759 
z
M 3341 1997 
L 3341 0 
L 2766 0 
L 2766 531 
Q 2569 213 2275 61 
Q 1981 -91 1556 -91 
Q 1019 -91 701 211 
Q 384 513 384 1019 
Q 384 1609 779 1909 
Q 1175 2209 1959 2209 
L 2766 2209 
L 2766 2266 
Q 2766 2663 2505 2880 
Q 2244 3097 1772 3097 
Q 1472 3097 1187 3025 
Q 903 2953 641 2809 
L 641 3341 
Q 956 3463 1253 3523 
Q 1550 3584 1831 3584 
Q 2591 3584 2966 3190 
Q 3341 2797 3341 1997 
z
" transform="scale(0.015625)"/>
      </defs>
      <use xlink:href="#DejaVuSans-65"/>
      <use xlink:href="#DejaVuSans-70" x="61.523438"/>
      <use xlink:href="#DejaVuSans-69" x="125"/>
      <use xlink:href="#DejaVuSans-73" x="152.783203"/>
      <use xlink:href="#DejaVuSans-6f" x="204.882812"/>
      <use xlink:href="#DejaVuSans-64" x="266.064453"/>
      <use xlink:href="#DejaVuSans-65" x="329.541016"/>
      <use xlink:href="#DejaVuSans-20" x="391.064453"/>
      <use xlink:href="#DejaVuSans-72" x="422.851562"/>
      <use xlink:href="#DejaVuSans-65" x="461.714844"/>
      <use xlink:href="#DejaVuSans-77" x="523.238281"/>
      <use xlink:href="#DejaVuSans-61" x="605.025391"/>
      <use xlink:href="#DejaVuSans-72" x="666.304688"/>
      <use xlink:href="#DejaVuSans-64" x="705.667969"/>
     </g>
    </g>
   </g>
   <g id="line2d_13">
    <path d="M 73.832727 264.551406 
L 74.157707 223.302614 
L 74.482686 238.770911 
L 74.807666 212.990416 
L 75.457625 61.171944 
L 75.782604 295.488 
L 76.107584 146.638192 
L 76.432563 145.023656 
L 76.757543 144.919492 
L 77.082523 84.97333 
L 77.407502 66.848861 
L 77.732482 99.556237 
L 78.057461 187.939066 
L 78.382441 73.671578 
L 78.70742 128.617886 
L 79.0324 77.890205 
L 79.357379 113.514161 
L 80.007338 60.859453 
L 80.332318 59.60949 
L 80.657297 55.182536 
L 80.982277 94.295974 
L 81.307256 109.816353 
L 81.632236 151.690127 
L 82.282195 71.484142 
L 82.607174 54.192982 
L 82.932154 59.349081 
L 83.257133 54.609636 
L 83.582113 143.669529 
L 83.907093 54.974209 
L 84.232072 150.179755 
L 84.557052 76.90065 
L 84.882031 137.263466 
L 85.207011 106.951854 
L 85.53199 64.765589 
L 86.181949 75.911096 
L 86.831908 53.880491 
L 87.156888 54.505473 
L 87.806847 102.160327 
L 88.131826 67.630088 
L 88.456806 65.025998 
L 88.781785 87.941994 
L 89.106765 84.348349 
L 89.431744 105.233154 
L 89.756724 84.192103 
L 90.081704 54.609636 
L 90.406683 54.453391 
L 90.731663 78.827677 
L 91.056642 89.504448 
L 91.381622 121.222269 
L 91.706601 59.60949 
L 92.031581 59.765735 
L 92.35656 54.505473 
L 92.68154 104.347763 
L 93.331499 70.911242 
L 93.656478 90.077348 
L 93.981458 82.577567 
L 94.306437 88.306566 
L 94.631417 77.47355 
L 94.956396 87.26493 
L 95.281376 76.223587 
L 95.606355 53.568 
L 95.931335 82.733813 
L 96.256314 65.442652 
L 96.581294 99.868728 
L 96.906274 65.703061 
L 97.231253 87.681584 
L 97.556233 59.817817 
L 97.881212 72.109124 
L 98.206192 65.703061 
L 98.531171 70.754997 
L 98.856151 84.556676 
L 99.18113 106.014381 
L 99.50611 54.245064 
L 99.831089 76.067341 
L 100.156069 54.192982 
L 100.481048 53.880491 
L 100.806028 59.296999 
L 101.131007 60.442799 
L 101.455987 80.910949 
L 102.105946 59.974062 
L 102.430925 100.129137 
L 102.755905 59.60949 
L 103.080885 75.702769 
L 103.405864 65.755143 
L 103.730844 98.77501 
L 104.055823 88.827384 
L 104.380803 54.557554 
L 104.705782 66.223879 
L 105.030762 131.430304 
L 105.355741 54.453391 
L 105.680721 126.742941 
L 106.0057 80.806786 
L 106.33068 71.484142 
L 106.980639 109.712189 
L 107.305618 70.650833 
L 107.630598 76.067341 
L 107.955577 59.713653 
L 108.280557 54.192982 
L 108.605536 64.973916 
L 108.930516 53.984654 
L 109.255495 97.889619 
L 109.580475 120.649369 
L 109.905455 53.724245 
L 110.230434 77.681877 
L 110.555414 54.453391 
L 110.880393 93.514747 
L 111.205373 65.234325 
L 111.530352 106.378954 
L 111.855332 99.920809 
L 112.180311 53.828409 
L 112.505291 88.723221 
L 112.83027 60.234471 
L 113.15525 70.442506 
L 113.480229 59.453244 
L 113.805209 60.963617 
L 114.130188 66.171798 
L 114.455168 53.776327 
L 114.780147 60.234471 
L 115.105127 94.139729 
L 115.430106 77.369386 
L 115.755086 54.192982 
L 116.405045 92.941847 
L 116.730025 65.911389 
L 117.055004 103.6707 
L 117.379984 94.295974 
L 117.704963 59.557408 
L 118.029943 65.911389 
L 118.354922 77.47355 
L 118.679902 54.557554 
L 119.004881 53.620082 
L 119.329861 83.879612 
L 119.65484 60.078226 
L 120.304799 60.026144 
L 120.629779 64.713507 
L 120.954758 53.880491 
L 121.279738 54.557554 
L 121.604717 81.900504 
L 121.929697 219.083987 
L 122.254676 59.401163 
L 122.579656 127.680413 
L 122.904636 60.599044 
L 123.229615 59.140753 
L 123.554595 59.505326 
L 123.879574 53.932573 
L 124.204554 95.129283 
L 124.529533 99.712482 
L 125.179492 59.192835 
L 125.504472 60.234471 
L 125.829451 65.130161 
L 126.154431 53.620082 
L 126.47941 53.932573 
L 126.80439 53.672164 
L 127.454349 99.243746 
L 127.779328 53.776327 
L 128.104308 59.60949 
L 128.429287 53.880491 
L 128.754267 59.244917 
L 129.079247 53.776327 
L 129.404226 75.286114 
L 129.729206 53.932573 
L 130.054185 59.60949 
L 130.379165 54.1409 
L 131.029124 65.130161 
L 131.679083 54.349227 
L 132.004062 94.504301 
L 132.329042 70.702915 
L 132.654021 65.182243 
L 132.979001 65.65098 
L 133.30398 98.983337 
L 133.62896 54.245064 
L 133.953939 87.577421 
L 134.278919 70.598751 
L 134.603898 76.431914 
L 134.928878 54.088818 
L 135.253857 59.505326 
L 135.903817 81.79634 
L 136.228796 81.900504 
L 136.553776 70.85916 
L 136.878755 54.036736 
L 137.203735 53.984654 
L 137.528714 75.859014 
L 137.853694 69.921688 
L 138.178673 70.494588 
L 138.503653 59.401163 
L 138.828632 53.828409 
L 139.153612 54.036736 
L 139.478591 64.140607 
L 139.803571 54.245064 
L 140.12855 66.53637 
L 140.45353 64.973916 
L 140.778509 53.620082 
L 141.103489 70.442506 
L 141.428468 64.661425 
L 141.753448 69.765442 
L 142.078428 58.880344 
L 142.403407 64.921834 
L 142.728387 59.296999 
L 143.053366 70.338342 
L 143.378346 59.921981 
L 143.703325 64.453098 
L 144.353284 53.776327 
L 144.678264 54.088818 
L 145.003243 65.546816 
L 145.328223 54.245064 
L 145.653202 65.07808 
L 145.978182 81.015113 
L 146.303161 70.702915 
L 146.628141 53.932573 
L 146.95312 53.568 
L 147.2781 69.713361 
L 147.603079 59.088672 
L 147.928059 76.796487 
L 148.253038 59.557408 
L 148.578018 77.317305 
L 148.902998 70.28626 
L 149.227977 59.557408 
L 149.552957 81.379686 
L 150.202916 53.672164 
L 150.527895 54.453391 
L 150.852875 58.880344 
L 151.177854 54.192982 
L 151.502834 53.672164 
L 151.827813 53.880491 
L 152.152793 53.672164 
L 152.477772 60.338635 
L 152.802752 59.03659 
L 153.127731 69.97377 
L 153.452711 54.192982 
L 153.77769 59.60949 
L 154.10267 110.076762 
L 154.427649 59.505326 
L 154.752629 53.828409 
L 155.077609 59.557408 
L 155.402588 54.7138 
L 155.727568 64.817671 
L 156.052547 64.453098 
L 156.377527 71.43206 
L 156.702506 71.067488 
L 157.027486 54.609636 
L 157.352465 53.984654 
L 157.677445 70.85916 
L 158.002424 76.015259 
L 158.327404 53.880491 
L 158.652383 59.453244 
L 158.977363 54.401309 
L 159.302342 54.7138 
L 159.627322 53.984654 
L 159.952301 54.192982 
L 160.277281 75.75485 
L 160.60226 53.568 
L 160.92724 54.192982 
L 161.252219 59.401163 
L 161.577199 53.984654 
L 161.902179 54.1409 
L 162.227158 59.192835 
L 162.552138 53.880491 
L 162.877117 65.598898 
L 163.202097 54.088818 
L 163.527076 53.984654 
L 163.852056 59.244917 
L 164.177035 60.494881 
L 164.502015 59.088672 
L 164.826994 54.297145 
L 165.151974 53.880491 
L 165.476953 64.713507 
L 165.801933 53.724245 
L 166.126912 54.245064 
L 166.451892 53.932573 
L 166.776871 59.192835 
L 167.101851 58.828263 
L 167.42683 70.598751 
L 167.75181 64.817671 
L 168.07679 53.880491 
L 168.401769 64.817671 
L 168.726749 59.349081 
L 169.051728 59.244917 
L 169.376708 53.672164 
L 170.026667 54.192982 
L 170.676626 64.140607 
L 171.001605 53.568 
L 171.326585 69.817524 
L 171.651564 58.932426 
L 171.976544 53.568 
L 172.301523 53.984654 
L 172.626503 54.088818 
L 172.951482 59.349081 
L 173.276462 54.349227 
L 173.601441 59.974062 
L 173.926421 53.776327 
L 174.2514 59.140753 
L 174.57638 54.245064 
L 174.90136 53.932573 
L 175.226339 54.1409 
L 175.551319 53.672164 
L 175.876298 54.661718 
L 176.201278 53.828409 
L 176.526257 53.672164 
L 176.851237 65.390571 
L 177.176216 53.724245 
L 177.501196 59.817817 
L 177.826175 53.724245 
L 178.151155 69.921688 
L 178.476134 59.244917 
L 178.801114 70.025851 
L 179.126093 59.557408 
L 179.451073 53.568 
L 180.101032 70.338342 
L 180.426011 59.505326 
L 180.750991 64.557262 
L 181.075971 64.973916 
L 181.72593 54.036736 
L 182.050909 70.025851 
L 182.375889 53.776327 
L 182.700868 86.275376 
L 183.025848 54.088818 
L 183.350827 70.390424 
L 183.675807 54.088818 
L 184.000786 53.880491 
L 184.325766 54.192982 
L 184.650745 53.984654 
L 184.975725 59.765735 
L 185.300704 53.672164 
L 185.625684 64.244771 
L 185.950663 58.880344 
L 186.275643 59.974062 
L 186.600622 64.661425 
L 186.925602 53.880491 
L 187.250581 53.776327 
L 187.575561 54.088818 
L 187.900541 53.776327 
L 188.5505 64.557262 
L 188.875479 65.390571 
L 189.200459 53.880491 
L 189.850418 53.672164 
L 190.175397 65.130161 
L 190.500377 53.880491 
L 190.825356 64.557262 
L 191.150336 54.245064 
L 191.475315 58.880344 
L 191.800295 61.015699 
L 192.125274 104.712336 
L 192.450254 53.828409 
L 192.775233 59.974062 
L 193.100213 53.984654 
L 193.750172 53.828409 
L 194.075152 53.984654 
L 194.400131 80.65054 
L 194.725111 53.880491 
L 195.05009 65.130161 
L 195.37507 53.672164 
L 195.700049 64.557262 
L 196.025029 53.984654 
L 196.350008 65.130161 
L 196.674988 53.932573 
L 196.999967 53.776327 
L 197.324947 69.97377 
L 197.649926 71.015406 
L 197.974906 53.776327 
L 198.299885 59.296999 
L 198.624865 54.088818 
L 198.949844 59.244917 
L 199.274824 53.880491 
L 199.599803 64.817671 
L 199.924783 53.672164 
L 200.574742 53.984654 
L 200.899722 64.765589 
L 201.224701 58.932426 
L 201.549681 103.618618 
L 201.87466 87.108685 
L 202.19964 59.765735 
L 202.524619 54.297145 
L 202.849599 53.776327 
L 203.174578 59.296999 
L 203.499558 59.244917 
L 203.824537 65.598898 
L 204.149517 65.755143 
L 204.474496 53.880491 
L 204.799476 53.672164 
L 205.124455 54.036736 
L 205.449435 53.672164 
L 205.774414 53.672164 
L 206.099394 70.598751 
L 206.424373 53.724245 
L 206.749353 59.140753 
L 207.074333 53.568 
L 207.399312 59.140753 
L 207.724292 58.932426 
L 208.049271 53.672164 
L 208.374251 54.088818 
L 208.69923 64.453098 
L 209.02421 81.327604 
L 209.349189 65.286407 
L 209.674169 71.484142 
L 209.999148 59.03659 
L 210.324128 59.661572 
L 210.649107 65.025998 
L 210.974087 53.672164 
L 211.624046 53.880491 
L 211.949025 58.828263 
L 212.274005 53.568 
L 212.598984 53.568 
L 212.923964 53.776327 
L 213.248943 53.828409 
L 213.898903 64.973916 
L 214.548862 53.672164 
L 214.873841 59.505326 
L 215.198821 54.557554 
L 215.84878 53.776327 
L 216.173759 54.088818 
L 216.498739 59.140753 
L 216.823718 70.077933 
L 217.148698 53.724245 
L 217.473677 53.828409 
L 217.798657 59.088672 
L 218.123636 76.119423 
L 218.448616 64.713507 
L 219.098575 53.672164 
L 219.423554 53.568 
L 219.748534 53.880491 
L 220.073514 53.776327 
L 220.398493 70.28626 
L 220.723473 53.672164 
L 221.048452 59.088672 
L 221.373432 53.568 
L 221.698411 54.088818 
L 222.023391 59.088672 
L 222.34837 53.776327 
L 222.67335 64.296853 
L 223.323309 53.880491 
L 223.648288 70.390424 
L 224.623227 53.620082 
L 224.948206 53.880491 
L 225.273186 59.192835 
L 225.598165 59.244917 
L 225.923145 53.724245 
L 226.248124 53.984654 
L 226.573104 53.776327 
L 226.898084 114.816207 
L 227.223063 53.828409 
L 227.548043 53.672164 
L 227.873022 65.130161 
L 228.522981 53.932573 
L 228.847961 54.297145 
L 229.17294 53.776327 
L 229.49792 86.067048 
L 229.822899 53.672164 
L 230.147879 53.568 
L 230.797838 53.880491 
L 231.122817 64.713507 
L 231.447797 59.401163 
L 231.772776 70.077933 
L 232.097756 53.724245 
L 232.422735 65.182243 
L 232.747715 54.036736 
L 233.072695 59.03659 
L 233.397674 53.984654 
L 233.722654 53.776327 
L 234.047633 64.817671 
L 234.372613 53.672164 
L 234.697592 64.973916 
L 235.347551 53.880491 
L 236.32249 53.672164 
L 236.647469 53.932573 
L 236.972449 59.140753 
L 237.297428 53.568 
L 237.622408 59.192835 
L 237.947387 59.60949 
L 238.272367 53.932573 
L 238.922326 64.869752 
L 239.247305 53.828409 
L 239.572285 53.880491 
L 240.222244 64.609343 
L 240.547224 53.568 
L 240.872203 59.140753 
L 241.197183 53.932573 
L 241.522162 53.984654 
L 241.847142 58.984508 
L 242.172121 59.349081 
L 242.497101 53.672164 
L 242.82208 64.817671 
L 243.14706 53.776327 
L 243.472039 59.192835 
L 243.797019 53.672164 
L 244.121998 53.880491 
L 244.446978 53.672164 
L 244.771957 59.661572 
L 245.096937 53.724245 
L 245.421916 59.765735 
L 245.746896 53.568 
L 246.396855 53.932573 
L 246.721835 58.880344 
L 247.046814 53.672164 
L 247.371794 53.568 
L 248.021753 53.776327 
L 248.346732 64.557262 
L 248.671712 53.568 
L 248.996691 53.984654 
L 249.321671 53.620082 
L 249.64665 53.672164 
L 249.97163 53.984654 
L 250.296609 53.568 
L 250.621589 59.60949 
L 250.946568 53.568 
L 251.271548 53.568 
L 251.921507 64.192689 
L 252.246486 53.880491 
L 252.571466 53.880491 
L 252.896446 64.50518 
L 253.546405 54.088818 
L 253.871384 53.776327 
L 254.196364 59.60949 
L 254.521343 53.880491 
L 254.846323 65.859307 
L 255.496282 53.776327 
L 255.821261 53.880491 
L 256.146241 59.140753 
L 256.47122 53.984654 
L 256.7962 53.984654 
L 257.121179 59.401163 
L 257.446159 59.140753 
L 257.771138 75.598605 
L 258.096118 70.077933 
L 258.421097 53.672164 
L 258.746077 64.557262 
L 259.071057 58.880344 
L 259.396036 69.817524 
L 259.721016 70.28626 
L 260.045995 53.568 
L 260.370975 54.505473 
L 260.695954 64.869752 
L 261.020934 65.182243 
L 261.345913 53.880491 
L 261.670893 53.880491 
L 261.995872 54.036736 
L 262.320852 69.921688 
L 262.645831 53.932573 
L 262.970811 53.672164 
L 263.29579 65.234325 
L 263.62077 64.401016 
L 263.945749 65.07808 
L 264.595708 54.192982 
L 264.920688 64.661425 
L 265.245667 53.932573 
L 265.570647 64.661425 
L 265.895627 53.984654 
L 266.220606 53.568 
L 266.545586 64.557262 
L 266.870565 70.54667 
L 267.195545 53.672164 
L 267.520524 70.911242 
L 267.845504 58.776181 
L 268.170483 58.932426 
L 268.495463 53.880491 
L 268.820442 59.349081 
L 269.145422 59.03659 
L 269.470401 53.672164 
L 269.795381 53.672164 
L 270.12036 59.817817 
L 270.44534 70.338342 
L 270.770319 58.776181 
L 271.095299 59.869899 
L 271.420278 53.828409 
L 271.745258 59.505326 
L 272.070238 59.713653 
L 272.395217 59.453244 
L 272.720197 58.984508 
L 273.045176 70.28626 
L 273.370156 59.661572 
L 273.695135 53.672164 
L 274.670074 53.568 
L 274.995053 70.025851 
L 275.320033 53.776327 
L 275.645012 53.724245 
L 275.969992 64.401016 
L 276.294971 53.672164 
L 276.619951 64.296853 
L 276.94493 53.776327 
L 277.26991 53.776327 
L 277.594889 70.754997 
L 277.919869 54.453391 
L 278.244848 59.244917 
L 278.569828 53.776327 
L 278.894808 53.672164 
L 279.219787 59.192835 
L 279.544767 53.880491 
L 279.869746 53.776327 
L 280.194726 86.69203 
L 280.519705 59.661572 
L 280.844685 69.97377 
L 281.169664 59.192835 
L 281.494644 69.452952 
L 281.819623 53.672164 
L 282.144603 59.088672 
L 282.469582 53.724245 
L 282.794562 53.672164 
L 283.119541 70.807079 
L 283.444521 53.568 
L 283.7695 59.192835 
L 284.09448 53.568 
L 284.419459 92.525193 
L 284.744439 53.724245 
L 285.394398 53.724245 
L 285.719378 59.244917 
L 286.044357 54.192982 
L 286.369337 59.557408 
L 286.694316 59.192835 
L 287.019296 53.776327 
L 287.344275 53.568 
L 287.669255 53.776327 
L 287.994234 53.724245 
L 288.319214 53.984654 
L 288.644193 53.672164 
L 288.969173 59.088672 
L 289.294152 53.568 
L 289.619132 64.557262 
L 289.944111 53.620082 
L 290.269091 53.984654 
L 290.59407 59.453244 
L 290.91905 53.568 
L 291.244029 53.880491 
L 291.569009 53.776327 
L 292.218968 65.442652 
L 292.543948 53.568 
L 292.868927 53.828409 
L 293.193907 53.568 
L 293.518886 54.036736 
L 293.843866 53.724245 
L 294.168845 59.817817 
L 294.493825 53.776327 
L 294.818804 53.568 
L 295.143784 53.776327 
L 295.468763 53.776327 
L 295.793743 59.349081 
L 296.443702 59.140753 
L 296.768681 80.442213 
L 297.093661 59.505326 
L 297.41864 53.568 
L 297.74362 54.349227 
L 298.0686 53.672164 
L 298.393579 59.869899 
L 298.718559 59.401163 
L 299.368518 59.140753 
L 299.693497 53.828409 
L 300.018477 64.921834 
L 300.343456 53.880491 
L 300.993415 53.776327 
L 301.318395 64.973916 
L 301.643374 59.03659 
L 301.968354 59.557408 
L 302.293333 65.338489 
L 302.618313 53.672164 
L 302.943292 64.869752 
L 303.593251 53.880491 
L 303.918231 53.828409 
L 304.24321 59.192835 
L 304.56819 53.568 
L 305.218149 64.817671 
L 305.543129 69.557115 
L 305.868108 59.713653 
L 306.193088 53.776327 
L 306.518067 53.776327 
L 307.168026 65.025998 
L 307.493006 53.620082 
L 307.817985 59.60949 
L 308.142965 53.776327 
L 308.467944 53.672164 
L 308.792924 64.401016 
L 309.117903 53.880491 
L 309.442883 53.672164 
L 310.092842 53.724245 
L 310.417821 64.401016 
L 310.742801 54.036736 
L 312.367699 53.828409 
L 312.692678 59.296999 
L 313.017658 53.672164 
L 313.342637 53.776327 
L 313.667617 59.244917 
L 313.992596 53.568 
L 314.317576 64.609343 
L 314.642555 53.880491 
L 314.967535 59.296999 
L 315.292514 53.672164 
L 315.617494 58.828263 
L 315.942473 53.776327 
L 316.267453 54.192982 
L 316.592432 53.828409 
L 316.917412 59.244917 
L 317.242391 53.672164 
L 317.567371 53.880491 
L 318.21733 53.880491 
L 318.54231 53.568 
L 318.867289 59.296999 
L 319.192269 53.776327 
L 319.517248 53.776327 
L 319.842228 53.568 
L 320.167207 53.672164 
L 320.492187 65.07808 
L 320.817166 64.50518 
L 321.142146 53.620082 
L 321.792105 53.620082 
L 322.117084 75.963178 
L 322.442064 59.192835 
L 322.767043 53.724245 
L 323.092023 59.557408 
L 323.417002 59.192835 
L 323.741982 59.60949 
L 324.066962 53.932573 
L 324.391941 53.672164 
L 324.716921 53.984654 
L 325.0419 53.568 
L 325.36688 58.932426 
L 325.691859 59.869899 
L 326.016839 58.984508 
L 326.341818 53.880491 
L 326.666798 59.349081 
L 326.991777 53.880491 
L 327.316757 53.672164 
L 327.966716 53.568 
L 328.291695 59.03659 
L 328.616675 59.296999 
L 328.941654 53.880491 
L 329.266634 59.557408 
L 329.591613 53.776327 
L 329.916593 53.620082 
L 331.216511 53.880491 
L 331.541491 53.672164 
L 331.86647 64.401016 
L 332.19145 70.650833 
L 332.516429 53.776327 
L 332.841409 65.07808 
L 333.166388 53.672164 
L 333.491368 53.568 
L 333.816347 54.036736 
L 334.141327 53.880491 
L 334.466306 65.338489 
L 334.791286 53.776327 
L 335.441245 53.672164 
L 335.766224 59.661572 
L 336.091204 53.672164 
L 336.416183 59.296999 
L 336.741163 53.568 
L 337.066143 53.724245 
L 337.391122 54.192982 
L 337.716102 53.568 
L 338.041081 53.880491 
L 338.366061 54.036736 
L 338.69104 59.192835 
L 339.01602 53.620082 
L 339.340999 58.984508 
L 339.665979 53.724245 
L 339.990958 53.568 
L 340.315938 53.568 
L 340.640917 53.880491 
L 341.290876 53.568 
L 341.615856 53.620082 
L 341.940835 59.453244 
L 342.265815 53.568 
L 342.590794 53.932573 
L 343.240753 65.025998 
L 343.565733 58.984508 
L 343.890713 59.921981 
L 344.215692 53.672164 
L 344.540672 53.880491 
L 345.51561 53.828409 
L 345.84059 64.244771 
L 346.165569 59.140753 
L 346.490549 59.244917 
L 346.815528 53.672164 
L 347.140508 59.192835 
L 347.790467 59.401163 
L 348.115446 53.880491 
L 348.440426 91.743966 
L 348.765405 64.192689 
L 349.090385 53.724245 
L 349.415364 64.661425 
L 350.065324 53.932573 
L 350.390303 59.03659 
L 350.715283 53.828409 
L 351.040262 53.568 
L 351.365242 53.984654 
L 351.690221 53.672164 
L 352.015201 59.661572 
L 352.34018 53.672164 
L 352.66516 53.880491 
L 352.990139 53.568 
L 353.315119 53.776327 
L 353.640098 53.568 
L 353.965078 58.984508 
L 354.290057 59.192835 
L 354.615037 53.776327 
L 354.940016 53.880491 
L 355.264996 59.296999 
L 355.589975 53.672164 
L 355.914955 53.880491 
L 356.239934 65.338489 
L 356.564914 53.880491 
L 356.889894 64.140607 
L 357.214873 53.828409 
L 357.539853 64.921834 
L 357.864832 53.932573 
L 358.189812 53.880491 
L 358.514791 59.088672 
L 358.839771 53.932573 
L 359.16475 53.984654 
L 359.48973 59.296999 
L 359.814709 53.724245 
L 360.464668 64.348934 
L 360.789648 53.672164 
L 361.114627 53.776327 
L 361.764586 53.776327 
L 362.089566 59.349081 
L 362.414545 59.140753 
L 362.739525 59.244917 
L 363.064505 53.672164 
L 363.389484 53.568 
L 363.714464 64.869752 
L 364.039443 64.401016 
L 364.364423 53.672164 
L 365.014382 53.568 
L 365.339361 58.984508 
L 365.664341 53.776327 
L 365.98932 59.296999 
L 366.639279 59.557408 
L 366.964259 53.568 
L 367.289238 54.036736 
L 367.614218 53.568 
L 368.264177 53.880491 
L 368.589156 53.672164 
L 368.914136 59.03659 
L 369.239115 53.672164 
L 369.889075 53.568 
L 370.214054 53.880491 
L 370.539034 53.568 
L 370.864013 53.776327 
L 371.188993 53.672164 
L 371.513972 53.776327 
L 371.838952 64.973916 
L 372.163931 53.568 
L 372.488911 53.568 
L 372.81389 53.984654 
L 373.13887 59.244917 
L 373.463849 53.880491 
L 373.788829 64.921834 
L 374.113808 53.568 
L 374.438788 53.672164 
L 374.763767 53.568 
L 375.088747 53.776327 
L 375.413726 59.349081 
L 375.738706 53.880491 
L 376.388665 53.568 
L 376.713645 59.296999 
L 377.038624 59.349081 
L 377.363604 53.672164 
L 377.688583 53.568 
L 378.013563 53.776327 
L 378.338542 59.296999 
L 378.663522 53.672164 
L 378.988501 59.505326 
L 379.313481 53.620082 
L 379.63846 53.672164 
L 379.96344 59.140753 
L 380.288419 59.192835 
L 380.613399 64.817671 
L 380.938378 59.244917 
L 381.263358 59.244917 
L 381.588337 53.672164 
L 381.913317 53.880491 
L 382.238296 59.401163 
L 382.563276 59.140753 
L 382.888256 53.568 
L 383.213235 53.932573 
L 383.538215 64.296853 
L 383.863194 53.672164 
L 384.188174 53.568 
L 384.513153 53.880491 
L 384.838133 53.568 
L 385.163112 53.984654 
L 385.488092 53.672164 
L 385.813071 59.088672 
L 386.138051 59.401163 
L 386.46303 53.568 
L 386.78801 59.192835 
L 387.112989 53.568 
L 387.437969 53.672164 
L 388.087928 65.182243 
L 388.412907 53.672164 
L 388.737887 53.568 
L 389.062867 64.296853 
L 389.387846 53.776327 
L 389.712826 59.713653 
L 390.037805 54.088818 
L 390.362785 59.296999 
L 390.687764 58.932426 
L 391.012744 53.672164 
L 391.337723 59.453244 
L 391.662703 53.672164 
L 391.987682 64.088525 
L 392.312662 59.03659 
L 392.637641 59.140753 
L 392.962621 53.672164 
L 393.2876 53.880491 
L 393.61258 53.672164 
L 393.937559 53.776327 
L 394.262539 53.672164 
L 394.587518 53.880491 
L 394.912498 53.568 
L 395.237477 58.880344 
L 395.562457 58.984508 
L 395.887437 53.672164 
L 398.487273 53.568 
L 398.487273 53.568 
" clip-path="url(#p66d19844c4)" style="fill: none; stroke: #1f77b4; stroke-opacity: 0.3; stroke-width: 1.5; stroke-linecap: square"/>
   </g>
   <g id="line2d_14">
    <path d="M 76.757543 186.564106 
L 77.407502 152.960923 
L 77.732482 139.039456 
L 78.057461 136.534321 
L 78.382441 130.623036 
L 78.70742 137.36763 
L 79.0324 115.60785 
L 79.357379 112.295447 
L 79.682359 106.785192 
L 80.007338 98.379188 
L 80.332318 95.842804 
L 80.657297 94.676171 
L 80.982277 94.150145 
L 81.307256 86.337874 
L 81.632236 94.139729 
L 81.957215 91.780423 
L 82.282195 91.139817 
L 82.607174 85.207699 
L 82.932154 82.150496 
L 83.257133 81.525515 
L 83.582113 89.931519 
L 83.907093 89.910686 
L 84.232072 95.499064 
L 84.557052 92.207494 
L 84.882031 90.764828 
L 85.207011 90.95753 
L 85.53199 90.285675 
L 86.181949 93.634535 
L 86.506929 94.660547 
L 86.831908 85.681643 
L 87.156888 85.634769 
L 87.481867 78.718305 
L 87.806847 81.244273 
L 88.131826 74.280935 
L 88.456806 70.08835 
L 88.781785 72.40599 
L 89.106765 73.728868 
L 89.756724 78.593309 
L 90.406683 78.661015 
L 90.731663 78.442272 
L 91.056642 77.176684 
L 91.381622 82.535902 
L 91.706601 81.994251 
L 92.35656 76.192338 
L 92.68154 76.103798 
L 93.006519 76.655866 
L 93.331499 78.286026 
L 93.656478 81.848422 
L 93.981458 82.223411 
L 94.306437 82.103623 
L 94.631417 77.728751 
L 94.956396 80.494295 
L 95.281376 82.14008 
L 95.606355 82.046333 
L 96.256314 77.457926 
L 96.581294 80.353674 
L 96.906274 77.916245 
L 97.231253 78.426647 
L 97.556233 75.577772 
L 97.881212 75.04133 
L 98.206192 72.885143 
L 98.531171 72.338284 
L 99.18113 77.765208 
L 99.50611 76.645449 
L 99.831089 74.265311 
L 100.156069 73.114303 
L 100.481048 69.734193 
L 100.806028 69.682112 
L 101.131007 68.515479 
L 101.455987 70.036268 
L 101.780966 70.114391 
L 102.105946 67.656129 
L 102.430925 67.067605 
L 102.755905 67.604047 
L 103.080885 67.56759 
L 103.405864 68.723806 
L 104.055823 76.166297 
L 104.380803 75.577772 
L 104.705782 74.109065 
L 105.030762 80.098473 
L 105.355741 79.546406 
L 106.0057 84.327516 
L 106.33068 83.905653 
L 106.655659 86.171212 
L 106.980639 87.26493 
L 107.305618 85.447275 
L 107.630598 87.598254 
L 107.955577 86.947231 
L 108.280557 79.223499 
L 108.605536 80.275551 
L 108.930516 72.999723 
L 109.255495 74.708006 
L 109.580475 79.624529 
L 110.230434 72.952849 
L 110.555414 71.333105 
L 110.880393 73.077845 
L 111.205373 73.629913 
L 111.855332 82.343199 
L 112.180311 82.327575 
L 112.505291 81.410935 
L 112.83027 75.369445 
L 113.15525 77.041271 
L 113.480229 75.218408 
L 113.805209 75.86943 
L 114.130188 73.135135 
L 114.455168 71.989336 
L 114.780147 67.374887 
L 115.105127 66.796779 
L 115.430106 69.150877 
L 115.755086 65.697853 
L 116.080066 67.33843 
L 116.405045 69.588364 
L 116.730025 70.234179 
L 117.379984 77.317305 
L 118.029943 78.463104 
L 118.354922 76.796487 
L 118.679902 74.515303 
L 119.004881 74.458013 
L 119.329861 75.18195 
L 119.65484 71.895588 
L 119.97982 71.307064 
L 120.629779 63.984362 
L 120.954758 63.41667 
L 121.279738 62.281287 
L 121.604717 62.723982 
L 121.929697 79.176625 
L 122.254676 79.754733 
L 122.579656 84.134813 
L 122.904636 84.186895 
L 123.554595 84.046274 
L 123.879574 82.968181 
L 124.529533 91.608553 
L 124.854513 91.092943 
L 125.179492 75.103828 
L 125.504472 75.187159 
L 125.829451 68.932133 
L 126.47941 67.713419 
L 126.80439 67.130103 
L 127.129369 69.395662 
L 127.454349 69.807108 
L 127.779328 65.213492 
L 128.104308 63.500001 
L 128.429287 62.968766 
L 128.754267 62.869811 
L 129.079247 61.734428 
L 129.404226 63.901031 
L 129.729206 63.901031 
L 130.054185 64.494763 
L 130.379165 62.250037 
L 130.704144 58.281404 
L 131.029124 59.416787 
L 131.679083 59.474077 
L 132.004062 63.000016 
L 132.329042 64.692674 
L 132.654021 63.682287 
L 132.979001 64.854128 
L 133.30398 68.791513 
L 133.62896 68.801929 
L 133.953939 71.60393 
L 134.278919 72.150789 
L 134.603898 73.822615 
L 134.928878 73.796574 
L 135.253857 70.296677 
L 135.578837 70.307093 
L 136.228796 73.593455 
L 136.553776 70.781038 
L 136.878755 70.760205 
L 137.203735 67.400928 
L 137.528714 67.926955 
L 137.853694 67.275932 
L 138.178673 68.916509 
L 138.503653 68.906093 
L 138.828632 67.208226 
L 139.153612 64.432265 
L 139.803571 60.994866 
L 140.45353 63.343755 
L 140.778509 61.119862 
L 141.103489 61.171944 
L 141.428468 60.588628 
L 141.753448 61.625056 
L 142.078428 62.130249 
L 142.403407 63.218759 
L 142.728387 62.734398 
L 143.053366 64.343726 
L 143.378346 63.682287 
L 143.703325 63.630205 
L 144.028305 64.208313 
L 144.353284 62.541696 
L 144.678264 61.484435 
L 145.328223 60.599044 
L 145.653202 60.614669 
L 145.978182 62.78648 
L 146.303161 62.822937 
L 146.628141 62.223997 
L 146.95312 61.135487 
L 147.2781 62.166707 
L 147.603079 62.697941 
L 147.928059 64.968708 
L 148.253038 64.369767 
L 148.578018 66.676991 
L 148.902998 67.197809 
L 149.227977 65.052039 
L 149.877936 67.208226 
L 150.202916 67.218642 
L 150.527895 65.692645 
L 150.852875 65.671812 
L 151.177854 63.411462 
L 151.502834 62.822937 
L 152.152793 58.817846 
L 152.477772 58.895969 
L 152.802752 56.661659 
L 153.127731 57.177269 
L 153.452711 57.229351 
L 153.77769 57.744961 
L 154.10267 62.864603 
L 154.427649 63.395837 
L 154.752629 63.411462 
L 155.077609 63.979153 
L 155.402588 64.083317 
L 156.052547 65.072871 
L 156.377527 65.218701 
L 156.702506 66.906151 
L 157.027486 66.406166 
L 157.352465 60.796955 
L 157.677445 61.932338 
L 158.002424 64.151023 
L 158.327404 63.583332 
L 158.652383 64.057276 
L 159.302342 62.04171 
L 159.952301 58.609519 
L 160.277281 60.72404 
L 160.60226 60.682375 
L 161.252219 57.354347 
L 161.577199 57.364764 
L 161.902179 56.833529 
L 162.227158 57.312682 
L 162.552138 57.229351 
L 162.877117 58.390775 
L 163.202097 58.380359 
L 163.527076 56.20334 
L 164.177035 57.401221 
L 165.151974 57.37518 
L 165.476953 57.927247 
L 165.801933 57.911623 
L 166.126912 56.776239 
L 166.451892 56.760615 
L 166.776871 57.281433 
L 167.101851 57.239767 
L 167.42683 58.250155 
L 167.75181 58.823054 
L 168.07679 58.781389 
L 168.401769 59.875107 
L 168.726749 59.338664 
L 169.051728 59.890732 
L 169.701687 59.828233 
L 170.026667 59.328248 
L 170.351646 59.354289 
L 170.676626 58.708474 
L 171.001605 57.583507 
L 171.326585 59.177211 
L 172.301523 57.484552 
L 172.626503 57.526217 
L 172.951482 58.073076 
L 173.601441 58.17724 
L 173.926421 57.140812 
L 174.2514 57.698087 
L 174.57638 56.140841 
L 174.90136 55.640856 
L 175.876298 55.724187 
L 176.201278 55.17212 
L 176.526257 55.104413 
L 176.851237 55.646064 
L 177.826175 55.656481 
L 178.151155 57.255392 
L 178.476134 57.765794 
L 178.801114 59.401163 
L 179.126093 59.890732 
L 179.451073 59.864691 
L 180.101032 61.093821 
L 180.750991 62.145874 
L 181.075971 63.270841 
L 181.40095 62.218788 
L 181.72593 61.69797 
L 182.050909 61.69797 
L 182.375889 61.119862 
L 182.700868 64.3906 
L 183.025848 63.697912 
L 183.350827 63.70312 
L 183.675807 63.161469 
L 184.325766 61.015699 
L 184.650745 60.474048 
L 184.975725 61.046948 
L 185.300704 59.411579 
L 185.625684 60.458423 
L 185.950663 57.71892 
L 186.275643 58.307445 
L 186.600622 57.734545 
L 188.22552 57.666838 
L 188.5505 58.755348 
L 188.875479 58.869928 
L 189.525438 57.750169 
L 189.850418 56.651243 
L 190.175397 57.77621 
L 190.500377 57.786626 
L 190.825356 58.833471 
L 191.150336 58.880344 
L 191.475315 58.797014 
L 191.800295 58.442857 
L 192.125274 62.375034 
L 192.450254 62.369826 
L 192.775233 62.989599 
L 193.100213 63.020848 
L 193.425192 61.895881 
L 193.750172 61.890673 
L 194.075152 60.833412 
L 194.400131 63.47396 
L 194.725111 62.973975 
L 195.05009 63.385421 
L 195.37507 58.281404 
L 195.700049 59.354289 
L 196.025029 58.755348 
L 196.350008 59.869899 
L 196.999967 59.869899 
L 197.324947 61.46881 
L 197.649926 60.505297 
L 197.974906 60.494881 
L 198.299885 59.911564 
L 198.624865 59.95323 
L 198.949844 59.421995 
L 200.249762 59.364705 
L 200.574742 57.765794 
L 200.899722 57.140812 
L 201.224701 57.656422 
L 201.87466 65.390571 
L 202.524619 65.484318 
L 202.849599 64.380183 
L 203.499558 65.47911 
L 203.824537 66.640534 
L 204.149517 66.739489 
L 204.474496 66.234296 
L 205.124455 57.932456 
L 205.449435 57.323098 
L 205.774414 57.2606 
L 206.099394 58.942843 
L 206.424373 58.385567 
L 206.749353 58.375151 
L 207.074333 57.172061 
L 207.399312 56.510622 
L 207.724292 57.015816 
L 208.374251 57.021024 
L 208.69923 58.099117 
L 209.02421 60.864661 
L 209.349189 60.333427 
L 209.674169 62.109417 
L 209.999148 62.099 
L 210.649107 63.296882 
L 210.974087 62.770856 
L 211.624046 62.760439 
L 211.949025 62.197956 
L 212.274005 59.421995 
L 212.598984 58.250155 
L 212.923964 56.479373 
L 213.248943 55.958555 
L 213.898903 55.88564 
L 214.223882 56.453332 
L 214.548862 56.442916 
L 214.873841 57.005399 
L 215.198821 56.578329 
L 216.173759 56.692909 
L 216.498739 57.224143 
L 216.823718 58.333485 
L 217.148698 57.208518 
L 217.473677 56.656451 
L 217.798657 57.198102 
L 218.123636 58.859512 
L 218.448616 59.875107 
L 218.773595 60.395925 
L 219.423554 60.333427 
L 219.748534 59.807401 
L 220.073514 58.17724 
L 220.398493 59.833442 
L 221.048452 59.817817 
L 221.373432 57.562675 
L 221.698411 56.500206 
L 222.34837 56.479373 
L 222.67335 57.552258 
L 222.998329 58.099117 
L 223.648288 58.11995 
L 223.973268 59.234501 
L 224.623227 59.291791 
L 225.273186 59.281374 
L 225.598165 59.828233 
L 225.923145 58.770973 
L 226.248124 58.23453 
L 226.573104 58.224114 
L 226.898084 62.666692 
L 227.223063 61.567766 
L 227.548043 60.974033 
L 227.873022 62.125041 
L 228.198002 62.666692 
L 228.847961 61.645888 
L 229.17294 61.651097 
L 229.49792 64.859336 
L 229.822899 64.84892 
L 230.147879 58.724099 
L 231.447797 58.708474 
L 231.772776 60.323011 
L 232.097756 60.265721 
L 232.422735 61.406312 
L 232.747715 58.203281 
L 233.072695 58.739724 
L 233.722654 58.781389 
L 234.047633 59.875107 
L 234.372613 58.770973 
L 234.697592 59.328248 
L 235.022572 58.286612 
L 235.347551 58.302236 
L 235.672531 57.161645 
L 235.99751 57.135604 
L 236.32249 56.599161 
L 236.647469 56.593953 
L 236.972449 57.130396 
L 237.297428 56.005429 
L 237.622408 56.557496 
L 238.272367 55.448153 
L 238.597346 56.00022 
L 238.922326 57.109563 
L 239.572285 57.135604 
L 240.222244 58.213697 
L 240.872203 58.208489 
L 241.197183 57.640797 
L 241.847142 57.60434 
L 242.172121 57.052273 
L 242.497101 57.036648 
L 242.82208 58.130366 
L 243.472039 57.041857 
L 243.797019 57.052273 
L 244.121998 56.526247 
L 244.446978 56.500206 
L 244.771957 57.067898 
L 245.096937 56.541871 
L 245.746896 56.57312 
L 246.071876 55.468986 
L 247.371794 55.422112 
L 247.696773 55.422112 
L 248.021753 54.833588 
L 248.346732 55.91689 
L 248.671712 55.297116 
L 249.321671 55.323157 
L 249.64665 55.297116 
L 249.97163 54.807547 
L 250.296609 54.797131 
L 250.621589 55.40128 
L 251.271548 55.370031 
L 251.596527 54.870045 
L 251.921507 55.932514 
L 252.571466 55.948139 
L 252.896446 57.03144 
L 253.221425 57.521009 
L 253.546405 57.573091 
L 253.871384 56.989775 
L 254.196364 57.593924 
L 254.521343 57.625173 
L 254.846323 58.255363 
L 255.171302 57.744961 
L 255.821261 57.734545 
L 256.47122 56.708533 
L 256.7962 56.698117 
L 257.121179 57.2606 
L 257.446159 57.213727 
L 257.771138 59.385538 
L 258.096118 59.807401 
L 258.421097 59.26575 
L 258.746077 60.343843 
L 259.071057 60.843829 
L 259.396036 61.911506 
L 259.721016 63.541666 
L 260.045995 63.500001 
L 260.370975 63.010432 
L 260.695954 63.583332 
L 261.020934 62.541696 
L 261.345913 60.921951 
L 261.670893 60.942784 
L 261.995872 59.890732 
L 262.320852 60.994866 
L 262.970811 57.744961 
L 263.62077 59.901148 
L 263.945749 59.921981 
L 264.270729 59.343873 
L 264.595708 59.375122 
L 264.920688 60.453215 
L 265.245667 60.442799 
L 265.570647 59.916772 
L 266.545586 59.843858 
L 266.870565 60.458423 
L 267.195545 59.317832 
L 267.520524 60.46884 
L 267.845504 60.92716 
L 268.170483 60.35426 
L 268.495463 60.349051 
L 268.820442 59.817817 
L 269.145422 60.323011 
L 269.470401 60.333427 
L 270.12036 58.172032 
L 270.44534 59.83865 
L 270.770319 58.625144 
L 271.095299 58.734515 
L 271.420278 58.224114 
L 271.745258 58.786597 
L 272.395217 58.86472 
L 272.720197 59.395954 
L 273.045176 61.057364 
L 273.370156 61.04174 
L 273.695135 59.375122 
L 274.345094 58.255363 
L 274.670074 58.229322 
L 274.995053 59.281374 
L 275.645012 58.114742 
L 275.969992 58.656393 
L 276.294971 56.994983 
L 276.619951 57.458511 
L 277.26991 57.479344 
L 277.594889 59.177211 
L 277.919869 59.26575 
L 278.244848 58.187656 
L 278.894808 58.182448 
L 279.219787 57.66163 
L 279.544767 57.682463 
L 279.869746 56.63041 
L 280.194726 59.921981 
L 280.519705 60.510505 
L 280.844685 60.432382 
L 281.169664 60.906327 
L 281.494644 61.92713 
L 281.819623 61.916714 
L 282.144603 62.458365 
L 282.469582 61.911506 
L 282.794562 61.890673 
L 283.119541 63.593748 
L 283.444521 60.281345 
L 283.7695 60.234471 
L 284.09448 58.593895 
L 284.419459 61.92713 
L 284.744439 60.35426 
L 285.069419 60.364676 
L 285.394398 59.828233 
L 285.719378 60.380301 
L 286.044357 60.432382 
L 286.369337 59.307415 
L 286.694316 59.869899 
L 287.019296 59.328248 
L 287.344275 59.328248 
L 287.669255 55.453361 
L 289.294152 55.390863 
L 289.619132 55.890849 
L 289.944111 55.333573 
L 290.269091 55.354406 
L 290.59407 55.94293 
L 291.569009 55.91689 
L 292.218968 57.114771 
L 292.543948 57.114771 
L 292.868927 56.041886 
L 293.518886 56.041886 
L 293.843866 55.468986 
L 294.168845 56.093968 
L 294.818804 56.062719 
L 295.143784 55.510651 
L 295.468763 54.344019 
L 296.443702 56.021053 
L 296.768681 58.661601 
L 297.093661 59.239709 
L 297.41864 58.614727 
L 298.0686 58.682434 
L 298.718559 59.854274 
L 299.368518 59.833442 
L 299.693497 59.302207 
L 300.018477 57.750169 
L 300.343456 57.187686 
L 300.993415 57.151228 
L 301.318395 58.281404 
L 301.968354 58.213697 
L 302.293333 58.823054 
L 302.618313 58.276195 
L 302.943292 59.38033 
L 303.268272 58.823054 
L 303.918231 58.828263 
L 304.24321 59.369913 
L 304.56819 58.229322 
L 304.89317 58.286612 
L 305.868108 59.83865 
L 306.193088 58.729307 
L 306.518067 58.172032 
L 306.843047 58.682434 
L 307.168026 59.802192 
L 307.493006 59.244917 
L 307.817985 59.849066 
L 308.142965 59.26575 
L 308.467944 58.151199 
L 309.117903 57.052273 
L 309.767862 57.03144 
L 310.092842 56.505414 
L 310.742801 56.484581 
L 311.067781 55.922098 
L 311.71774 55.948139 
L 312.042719 54.88567 
L 312.367699 54.880462 
L 312.692678 55.442945 
L 313.342637 55.448153 
L 313.667617 54.932543 
L 313.992596 54.88567 
L 314.317576 55.948139 
L 314.642555 55.94293 
L 314.967535 56.494998 
L 315.292514 56.484581 
L 315.617494 56.984567 
L 315.942473 56.432499 
L 316.917412 56.489789 
L 317.242391 56.500206 
L 317.567371 55.427321 
L 317.892351 55.422112 
L 318.21733 54.880462 
L 319.842228 54.849212 
L 320.167207 54.291937 
L 320.817166 56.494998 
L 321.792105 56.448124 
L 322.117084 58.114742 
L 322.442064 58.656393 
L 322.767043 58.651184 
L 323.417002 59.802192 
L 323.741982 59.255333 
L 324.066962 58.198073 
L 325.0419 58.239738 
L 325.36688 56.536663 
L 325.691859 56.604369 
L 326.016839 57.130396 
L 326.341818 56.562704 
L 326.666798 56.578329 
L 326.991777 56.005429 
L 327.966716 55.937722 
L 328.291695 56.484581 
L 328.616675 56.521039 
L 328.941654 55.922098 
L 329.591613 55.968971 
L 329.916593 55.396071 
L 330.891532 55.396071 
L 331.216511 55.427321 
L 331.541491 54.890878 
L 331.86647 55.40128 
L 332.19145 57.078314 
L 332.516429 56.500206 
L 332.841409 57.630381 
L 334.141327 57.66163 
L 334.466306 58.80743 
L 334.791286 58.817846 
L 335.116265 57.755377 
L 335.441245 56.05751 
L 335.766224 56.646035 
L 336.091204 55.505443 
L 336.416183 56.067927 
L 337.391122 56.067927 
L 337.716102 54.890878 
L 338.366061 54.927335 
L 338.69104 55.479402 
L 339.01602 54.875253 
L 339.340999 55.406488 
L 339.665979 54.849212 
L 342.265815 54.760673 
L 342.590794 54.25548 
L 342.915774 54.797131 
L 343.240753 55.94293 
L 343.890713 57.08873 
L 344.865651 57.14602 
L 345.190631 56.578329 
L 345.51561 56.604369 
L 345.84059 57.635589 
L 346.165569 57.635589 
L 346.815528 56.526247 
L 347.140508 56.453332 
L 347.790467 57.573091 
L 348.115446 57.573091 
L 348.440426 61.369855 
L 348.765405 62.406283 
L 349.090385 61.35423 
L 349.415364 61.906298 
L 350.390303 61.932338 
L 351.040262 60.796955 
L 351.365242 60.807371 
L 351.690221 57.000191 
L 352.015201 56.547079 
L 352.34018 56.541871 
L 352.66516 55.463778 
L 352.990139 54.880462 
L 353.315119 54.864837 
L 353.640098 54.317978 
L 354.290057 55.396071 
L 355.914955 55.359614 
L 356.239934 56.536663 
L 356.564914 56.547079 
L 356.889894 57.60434 
L 357.214873 57.08873 
L 357.539853 57.66163 
L 359.16475 57.692879 
L 359.48973 57.08873 
L 359.814709 57.073106 
L 360.139689 56.593953 
L 360.464668 57.646006 
L 360.789648 56.521039 
L 361.439607 56.489789 
L 361.764586 55.958555 
L 362.414545 57.015816 
L 363.064505 57.005399 
L 363.389484 56.427291 
L 363.714464 56.479373 
L 364.039443 57.552258 
L 365.339361 57.479344 
L 365.664341 56.942901 
L 365.98932 56.948109 
L 366.639279 58.11995 
L 367.289238 55.953347 
L 368.264177 55.97418 
L 368.589156 55.442945 
L 368.914136 55.968971 
L 369.889075 54.234647 
L 370.864013 54.239855 
L 371.513972 54.229439 
L 371.838952 55.359614 
L 372.163931 54.812755 
L 372.81389 54.833588 
L 373.13887 55.40128 
L 373.463849 55.40128 
L 373.788829 56.536663 
L 374.763767 56.494998 
L 375.088747 55.375239 
L 375.413726 55.953347 
L 376.063686 55.958555 
L 376.388665 55.390863 
L 376.713645 55.932514 
L 377.038624 55.375239 
L 378.013563 55.396071 
L 378.338542 55.948139 
L 378.663522 55.380447 
L 378.988501 55.94293 
L 380.288419 55.911681 
L 380.613399 57.026232 
L 381.263358 58.140783 
L 381.588337 57.578299 
L 382.238296 57.588716 
L 382.563276 58.140783 
L 382.888256 58.130366 
L 383.213235 57.609548 
L 383.538215 58.11995 
L 383.863194 57.005399 
L 384.513153 55.901265 
L 385.163112 55.901265 
L 385.488092 55.328365 
L 385.813071 55.323157 
L 386.138051 55.906473 
L 386.46303 55.870016 
L 386.78801 55.359614 
L 387.437969 55.359614 
L 387.762948 55.880432 
L 388.087928 57.041857 
L 388.737887 57.000191 
L 389.062867 57.521009 
L 389.387846 56.958526 
L 389.712826 57.573091 
L 390.037805 57.062689 
L 390.687764 58.161616 
L 391.337723 57.047065 
L 391.662703 57.047065 
L 391.987682 58.099117 
L 392.312662 57.573091 
L 392.637641 58.109534 
L 392.962621 57.505385 
L 393.2876 57.484552 
L 393.937559 56.406459 
L 394.262539 56.406459 
L 394.587518 55.849183 
L 394.912498 55.838767 
L 395.237477 55.317949 
L 395.562457 55.312741 
L 395.887437 54.765882 
L 398.162293 54.698175 
L 398.487273 54.166941 
L 398.487273 54.166941 
" clip-path="url(#p66d19844c4)" style="fill: none; stroke: #ff7f0e; stroke-width: 1.5; stroke-linecap: square"/>
   </g>
   <g id="line2d_15">
    <path d="M 73.832727 264.551406 
L 74.157707 243.92701 
L 74.482686 242.20831 
L 74.807666 234.903836 
L 75.457625 188.92862 
L 75.782604 204.151389 
L 76.432563 191.191285 
L 76.757543 186.564106 
L 77.407502 168.121938 
L 77.732482 162.847653 
L 78.057461 164.639897 
L 78.382441 158.575342 
L 78.70742 156.703001 
L 79.0324 152.066954 
L 79.357379 149.925132 
L 79.682359 146.767026 
L 80.657297 134.737498 
L 80.982277 132.979171 
L 81.307256 132.014054 
L 81.632236 132.801097 
L 81.957215 131.732779 
L 83.257133 122.15627 
L 83.582113 122.850246 
L 83.907093 120.729119 
L 84.232072 121.621563 
L 84.557052 120.306242 
L 84.882031 120.790734 
L 85.207011 120.406321 
L 85.85697 117.645071 
L 86.506929 115.282339 
L 87.156888 112.373322 
L 87.481867 111.644061 
L 87.806847 111.428522 
L 88.456806 109.467631 
L 89.106765 108.495862 
L 89.431744 108.429276 
L 89.756724 107.944533 
L 90.406683 105.890186 
L 90.731663 105.379573 
L 91.056642 105.085589 
L 91.381622 105.378983 
L 92.35656 102.926289 
L 92.68154 102.950382 
L 93.006519 102.729755 
L 93.331499 102.20814 
L 94.306437 101.494657 
L 96.256314 99.119494 
L 96.581294 99.130046 
L 96.906274 98.665783 
L 97.231253 98.515314 
L 97.881212 97.647265 
L 98.531171 96.883155 
L 98.856151 96.725123 
L 99.18113 96.842709 
L 99.50611 96.310238 
L 99.831089 96.060326 
L 101.131007 94.219996 
L 101.780966 93.806285 
L 102.105946 93.421828 
L 102.430925 93.497191 
L 102.755905 93.120661 
L 103.405864 92.633885 
L 104.055823 92.658722 
L 104.705782 91.986471 
L 105.030762 92.393109 
L 105.355741 92.005969 
L 105.680721 92.356847 
L 106.655659 92.00029 
L 106.980639 92.17225 
L 107.955577 91.511071 
L 108.930516 90.580964 
L 109.255495 90.647407 
L 109.580475 90.917695 
L 109.905455 90.58561 
L 110.230434 90.471418 
L 110.555414 90.15547 
L 110.880393 90.184681 
L 111.205373 89.969592 
L 111.855332 90.192987 
L 112.180311 89.887402 
L 112.505291 89.877701 
L 113.805209 89.00337 
L 114.455168 88.542588 
L 114.780147 88.319689 
L 115.105127 88.365158 
L 115.430106 88.27992 
L 115.755086 88.017712 
L 116.080066 87.930862 
L 116.405045 87.968824 
L 116.730025 87.802978 
L 117.379984 87.968613 
L 118.029943 87.60023 
L 118.354922 87.526849 
L 119.004881 87.049163 
L 119.329861 87.026683 
L 121.279738 85.877853 
L 121.604717 85.850979 
L 121.929697 86.745161 
L 122.254676 86.562867 
L 122.579656 86.835169 
L 123.879574 86.098634 
L 124.854513 86.182749 
L 127.129369 85.086332 
L 127.454349 85.171618 
L 129.079247 84.320328 
L 129.404226 84.267804 
L 130.704144 83.643765 
L 132.329042 83.235927 
L 132.979001 83.041181 
L 133.30398 83.127823 
L 133.62896 82.9717 
L 134.278919 82.930164 
L 134.603898 82.895599 
L 135.578837 82.559025 
L 136.553776 82.491391 
L 137.528714 82.16858 
L 138.503653 81.935138 
L 139.803571 81.437639 
L 143.703325 80.468013 
L 145.978182 79.884494 
L 146.628141 79.728345 
L 147.603079 79.479157 
L 148.902998 79.332781 
L 149.552957 79.257018 
L 150.852875 78.899016 
L 152.802752 78.330979 
L 155.077609 78.005988 
L 156.052547 77.809006 
L 157.027486 77.667692 
L 157.677445 77.549964 
L 158.327404 77.453396 
L 170.351646 75.016967 
L 172.301523 74.700879 
L 176.526257 73.905043 
L 179.126093 73.597862 
L 180.426011 73.445996 
L 184.325766 73.030559 
L 186.275643 72.777932 
L 187.575561 72.593588 
L 189.850418 72.304794 
L 193.750172 71.954145 
L 195.37507 71.814271 
L 198.299885 71.55155 
L 201.224701 71.229167 
L 201.87466 71.351366 
L 223.648288 69.502328 
L 225.923145 69.326578 
L 226.573104 69.26099 
L 226.898084 69.357505 
L 230.797838 69.073637 
L 234.047633 68.887432 
L 238.597346 68.548389 
L 241.197183 68.383054 
L 248.021753 67.893213 
L 249.97163 67.756984 
L 254.521343 67.484035 
L 256.7962 67.355181 
L 267.195545 67.005194 
L 269.145422 66.936847 
L 272.720197 66.792191 
L 274.345094 66.722786 
L 278.894808 66.531014 
L 348.115446 64.168528 
L 349.415364 64.189315 
L 360.789648 63.882673 
L 373.463849 63.542767 
L 377.038624 63.456796 
L 387.762948 63.214984 
L 392.637641 63.136945 
L 398.487273 62.977152 
L 398.487273 62.977152 
" clip-path="url(#p66d19844c4)" style="fill: none; stroke: #2ca02c; stroke-width: 1.5; stroke-linecap: square"/>
   </g>
   <g id="line2d_16">
    <defs>
     <path id="m7745d1ae17" d="M 0 2.5 
C 0.663008 2.5 1.29895 2.236584 1.767767 1.767767 
C 2.236584 1.29895 2.5 0.663008 2.5 0 
C 2.5 -0.663008 2.236584 -1.29895 1.767767 -1.767767 
C 1.29895 -2.236584 0.663008 -2.5 0 -2.5 
C -0.663008 -2.5 -1.29895 -2.236584 -1.767767 -1.767767 
C -2.236584 -1.29895 -2.5 -0.663008 -2.5 0 
C -2.5 0.663008 -2.236584 1.29895 -1.767767 1.767767 
C -1.29895 2.236584 -0.663008 2.5 0 2.5 
z
" style="stroke: #ff0000"/>
    </defs>
    <g clip-path="url(#p66d19844c4)">
     <use xlink:href="#m7745d1ae17" x="95.606355" y="53.568" style="fill: #ff0000; stroke: #ff0000"/>
    </g>
   </g>
   <g id="line2d_17">
    <path d="M 95.606355 307.584 
L 95.606355 41.472 
" clip-path="url(#p66d19844c4)" style="fill: none; stroke-dasharray: 5.55,2.4; stroke-dashoffset: 0; stroke: #ff0000; stroke-width: 1.5"/>
   </g>
   <g id="patch_3">
    <path d="M 57.6 307.584 
L 57.6 41.472 
" style="fill: none; stroke: #000000; stroke-width: 0.8; stroke-linejoin: miter; stroke-linecap: square"/>
   </g>
   <g id="patch_4">
    <path d="M 414.72 307.584 
L 414.72 41.472 
" style="fill: none; stroke: #000000; stroke-width: 0.8; stroke-linejoin: miter; stroke-linecap: square"/>
   </g>
   <g id="patch_5">
    <path d="M 57.6 307.584 
L 414.72 307.584 
" style="fill: none; stroke: #000000; stroke-width: 0.8; stroke-linejoin: miter; stroke-linecap: square"/>
   </g>
   <g id="patch_6">
    <path d="M 57.6 41.472 
L 414.72 41.472 
" style="fill: none; stroke: #000000; stroke-width: 0.8; stroke-linejoin: miter; stroke-linecap: square"/>
   </g>
   <g id="text_14">
    <!-- -13 -->
    <g transform="translate(98.856151 52.786773) scale(0.1 -0.1)">
     <defs>
      <path id="DejaVuSans-2d" d="M 313 2009 
L 1997 2009 
L 1997 1497 
L 313 1497 
L 313 2009 
z
" transform="scale(0.015625)"/>
     </defs>
     <use xlink:href="#DejaVuSans-2d"/>
     <use xlink:href="#DejaVuSans-31" x="36.083984"/>
     <use xlink:href="#DejaVuSans-33" x="99.707031"/>
    </g>
   </g>
   <g id="legend_1">
    <g id="patch_7">
     <path d="M 225.887187 302.584 
L 407.72 302.584 
Q 409.72 302.584 409.72 300.584 
L 409.72 242.8715 
Q 409.72 240.8715 407.72 240.8715 
L 225.887187 240.8715 
Q 223.887187 240.8715 223.887187 242.8715 
L 223.887187 300.584 
Q 223.887187 302.584 225.887187 302.584 
z
" style="fill: #ffffff; opacity: 0.8; stroke: #cccccc; stroke-linejoin: miter"/>
    </g>
    <g id="line2d_18">
     <path d="M 227.887187 248.969937 
L 237.887187 248.969937 
L 247.887187 248.969937 
" style="fill: none; stroke: #1f77b4; stroke-opacity: 0.3; stroke-width: 1.5; stroke-linecap: square"/>
    </g>
    <g id="text_15">
     <!-- reward per episode -->
     <g transform="translate(255.887187 252.469937) scale(0.1 -0.1)">
      <use xlink:href="#DejaVuSans-72"/>
      <use xlink:href="#DejaVuSans-65" x="38.863281"/>
      <use xlink:href="#DejaVuSans-77" x="100.386719"/>
      <use xlink:href="#DejaVuSans-61" x="182.173828"/>
      <use xlink:href="#DejaVuSans-72" x="243.453125"/>
      <use xlink:href="#DejaVuSans-64" x="282.816406"/>
      <use xlink:href="#DejaVuSans-20" x="346.292969"/>
      <use xlink:href="#DejaVuSans-70" x="378.080078"/>
      <use xlink:href="#DejaVuSans-65" x="441.556641"/>
      <use xlink:href="#DejaVuSans-72" x="503.080078"/>
      <use xlink:href="#DejaVuSans-20" x="544.193359"/>
      <use xlink:href="#DejaVuSans-65" x="575.980469"/>
      <use xlink:href="#DejaVuSans-70" x="637.503906"/>
      <use xlink:href="#DejaVuSans-69" x="700.980469"/>
      <use xlink:href="#DejaVuSans-73" x="728.763672"/>
      <use xlink:href="#DejaVuSans-6f" x="780.863281"/>
      <use xlink:href="#DejaVuSans-64" x="842.044922"/>
      <use xlink:href="#DejaVuSans-65" x="905.521484"/>
     </g>
    </g>
    <g id="line2d_19">
     <path d="M 227.887187 263.648062 
L 237.887187 263.648062 
L 247.887187 263.648062 
" style="fill: none; stroke: #ff7f0e; stroke-width: 1.5; stroke-linecap: square"/>
    </g>
    <g id="text_16">
     <!-- smoothed reward per episode -->
     <g transform="translate(255.887187 267.148062) scale(0.1 -0.1)">
      <defs>
       <path id="DejaVuSans-6d" d="M 3328 2828 
Q 3544 3216 3844 3400 
Q 4144 3584 4550 3584 
Q 5097 3584 5394 3201 
Q 5691 2819 5691 2113 
L 5691 0 
L 5113 0 
L 5113 2094 
Q 5113 2597 4934 2840 
Q 4756 3084 4391 3084 
Q 3944 3084 3684 2787 
Q 3425 2491 3425 1978 
L 3425 0 
L 2847 0 
L 2847 2094 
Q 2847 2600 2669 2842 
Q 2491 3084 2119 3084 
Q 1678 3084 1418 2786 
Q 1159 2488 1159 1978 
L 1159 0 
L 581 0 
L 581 3500 
L 1159 3500 
L 1159 2956 
Q 1356 3278 1631 3431 
Q 1906 3584 2284 3584 
Q 2666 3584 2933 3390 
Q 3200 3197 3328 2828 
z
" transform="scale(0.015625)"/>
       <path id="DejaVuSans-74" d="M 1172 4494 
L 1172 3500 
L 2356 3500 
L 2356 3053 
L 1172 3053 
L 1172 1153 
Q 1172 725 1289 603 
Q 1406 481 1766 481 
L 2356 481 
L 2356 0 
L 1766 0 
Q 1100 0 847 248 
Q 594 497 594 1153 
L 594 3053 
L 172 3053 
L 172 3500 
L 594 3500 
L 594 4494 
L 1172 4494 
z
" transform="scale(0.015625)"/>
       <path id="DejaVuSans-68" d="M 3513 2113 
L 3513 0 
L 2938 0 
L 2938 2094 
Q 2938 2591 2744 2837 
Q 2550 3084 2163 3084 
Q 1697 3084 1428 2787 
Q 1159 2491 1159 1978 
L 1159 0 
L 581 0 
L 581 4863 
L 1159 4863 
L 1159 2956 
Q 1366 3272 1645 3428 
Q 1925 3584 2291 3584 
Q 2894 3584 3203 3211 
Q 3513 2838 3513 2113 
z
" transform="scale(0.015625)"/>
      </defs>
      <use xlink:href="#DejaVuSans-73"/>
      <use xlink:href="#DejaVuSans-6d" x="52.099609"/>
      <use xlink:href="#DejaVuSans-6f" x="149.511719"/>
      <use xlink:href="#DejaVuSans-6f" x="210.693359"/>
      <use xlink:href="#DejaVuSans-74" x="271.875"/>
      <use xlink:href="#DejaVuSans-68" x="311.083984"/>
      <use xlink:href="#DejaVuSans-65" x="374.462891"/>
      <use xlink:href="#DejaVuSans-64" x="435.986328"/>
      <use xlink:href="#DejaVuSans-20" x="499.462891"/>
      <use xlink:href="#DejaVuSans-72" x="531.25"/>
      <use xlink:href="#DejaVuSans-65" x="570.113281"/>
      <use xlink:href="#DejaVuSans-77" x="631.636719"/>
      <use xlink:href="#DejaVuSans-61" x="713.423828"/>
      <use xlink:href="#DejaVuSans-72" x="774.703125"/>
      <use xlink:href="#DejaVuSans-64" x="814.066406"/>
      <use xlink:href="#DejaVuSans-20" x="877.542969"/>
      <use xlink:href="#DejaVuSans-70" x="909.330078"/>
      <use xlink:href="#DejaVuSans-65" x="972.806641"/>
      <use xlink:href="#DejaVuSans-72" x="1034.330078"/>
      <use xlink:href="#DejaVuSans-20" x="1075.443359"/>
      <use xlink:href="#DejaVuSans-65" x="1107.230469"/>
      <use xlink:href="#DejaVuSans-70" x="1168.753906"/>
      <use xlink:href="#DejaVuSans-69" x="1232.230469"/>
      <use xlink:href="#DejaVuSans-73" x="1260.013672"/>
      <use xlink:href="#DejaVuSans-6f" x="1312.113281"/>
      <use xlink:href="#DejaVuSans-64" x="1373.294922"/>
      <use xlink:href="#DejaVuSans-65" x="1436.771484"/>
     </g>
    </g>
    <g id="line2d_20">
     <path d="M 227.887187 278.326187 
L 237.887187 278.326187 
L 247.887187 278.326187 
" style="fill: none; stroke: #2ca02c; stroke-width: 1.5; stroke-linecap: square"/>
    </g>
    <g id="text_17">
     <!-- mean reward per episode -->
     <g transform="translate(255.887187 281.826187) scale(0.1 -0.1)">
      <defs>
       <path id="DejaVuSans-6e" d="M 3513 2113 
L 3513 0 
L 2938 0 
L 2938 2094 
Q 2938 2591 2744 2837 
Q 2550 3084 2163 3084 
Q 1697 3084 1428 2787 
Q 1159 2491 1159 1978 
L 1159 0 
L 581 0 
L 581 3500 
L 1159 3500 
L 1159 2956 
Q 1366 3272 1645 3428 
Q 1925 3584 2291 3584 
Q 2894 3584 3203 3211 
Q 3513 2838 3513 2113 
z
" transform="scale(0.015625)"/>
      </defs>
      <use xlink:href="#DejaVuSans-6d"/>
      <use xlink:href="#DejaVuSans-65" x="97.412109"/>
      <use xlink:href="#DejaVuSans-61" x="158.935547"/>
      <use xlink:href="#DejaVuSans-6e" x="220.214844"/>
      <use xlink:href="#DejaVuSans-20" x="283.59375"/>
      <use xlink:href="#DejaVuSans-72" x="315.380859"/>
      <use xlink:href="#DejaVuSans-65" x="354.244141"/>
      <use xlink:href="#DejaVuSans-77" x="415.767578"/>
      <use xlink:href="#DejaVuSans-61" x="497.554688"/>
      <use xlink:href="#DejaVuSans-72" x="558.833984"/>
      <use xlink:href="#DejaVuSans-64" x="598.197266"/>
      <use xlink:href="#DejaVuSans-20" x="661.673828"/>
      <use xlink:href="#DejaVuSans-70" x="693.460938"/>
      <use xlink:href="#DejaVuSans-65" x="756.9375"/>
      <use xlink:href="#DejaVuSans-72" x="818.460938"/>
      <use xlink:href="#DejaVuSans-20" x="859.574219"/>
      <use xlink:href="#DejaVuSans-65" x="891.361328"/>
      <use xlink:href="#DejaVuSans-70" x="952.884766"/>
      <use xlink:href="#DejaVuSans-69" x="1016.361328"/>
      <use xlink:href="#DejaVuSans-73" x="1044.144531"/>
      <use xlink:href="#DejaVuSans-6f" x="1096.244141"/>
      <use xlink:href="#DejaVuSans-64" x="1157.425781"/>
      <use xlink:href="#DejaVuSans-65" x="1220.902344"/>
     </g>
    </g>
    <g id="line2d_21">
     <g>
      <use xlink:href="#m7745d1ae17" x="237.887187" y="293.004312" style="fill: #ff0000; stroke: #ff0000"/>
     </g>
    </g>
    <g id="text_18">
     <!-- max reward -->
     <g transform="translate(255.887187 296.504312) scale(0.1 -0.1)">
      <defs>
       <path id="DejaVuSans-78" d="M 3513 3500 
L 2247 1797 
L 3578 0 
L 2900 0 
L 1881 1375 
L 863 0 
L 184 0 
L 1544 1831 
L 300 3500 
L 978 3500 
L 1906 2253 
L 2834 3500 
L 3513 3500 
z
" transform="scale(0.015625)"/>
      </defs>
      <use xlink:href="#DejaVuSans-6d"/>
      <use xlink:href="#DejaVuSans-61" x="97.412109"/>
      <use xlink:href="#DejaVuSans-78" x="158.691406"/>
      <use xlink:href="#DejaVuSans-20" x="217.871094"/>
      <use xlink:href="#DejaVuSans-72" x="249.658203"/>
      <use xlink:href="#DejaVuSans-65" x="288.521484"/>
      <use xlink:href="#DejaVuSans-77" x="350.044922"/>
      <use xlink:href="#DejaVuSans-61" x="431.832031"/>
      <use xlink:href="#DejaVuSans-72" x="493.111328"/>
      <use xlink:href="#DejaVuSans-64" x="532.474609"/>
     </g>
    </g>
   </g>
  </g>
 </g>
 <defs>
  <clipPath id="p66d19844c4">
   <rect x="57.6" y="41.472" width="357.12" height="266.112"/>
  </clipPath>
 </defs>
</svg>
